<?xml version="1.0" encoding="UTF-8"?>
<svg xmlns="http://www.w3.org/2000/svg" viewBox="0 0 235.2 193">
  <defs>
    <style>
      .cls-1 {
        fill: #f4f4f4;
      }

      .cls-2 {
        fill: #fff;
      }

      .cls-3 {
        opacity: .6;
      }

      .cls-3, .cls-4 {
        fill: #6d6d6d;
      }

      .cls-3, .cls-5 {
        mix-blend-mode: multiply;
      }

      .cls-6 {
        isolation: isolate;
      }

      .cls-7 {
        fill: #ed4f4f;
      }

      .cls-8 {
        fill: #c4c4c4;
      }
    </style>
  </defs>
  <g class="cls-6">
    <g id="Layer_1" data-name="Layer 1">
      <g>
        <g>
          <g>
            <rect class="cls-1" y="8.1" width="235.2" height="184.9" rx="11.8" ry="11.8"/>
            <g class="cls-5">
              <path class="cls-1" d="M11.8,8.1h0c-.1,0-.3,0-.4,0,.1,0,.3,0,.4,0Z"/>
              <path class="cls-1" d="M224.6,8.2c5.9,.6,10.5,5.6,10.3,11.7l-3.2,156.3c-.1,6.1-5.3,11.1-11.6,11.1H15.1c-6.3,0-11.5-5-11.6-11.1L.2,19.8c-.1-6.1,4.4-11.1,10.3-11.7C4.6,8.8,0,13.8,0,19.9V181.2c0,6.5,5.3,11.8,11.8,11.8H223.4c6.5,0,11.8-5.3,11.8-11.8V19.9c0-6.1-4.6-11.1-10.6-11.7Z"/>
            </g>
            <g>
              <g>
                <circle class="cls-8" cx="26.5" cy="66.7" r="8.2"/>
                <circle class="cls-8" cx="56.9" cy="66.7" r="8.2"/>
                <circle class="cls-8" cx="87.2" cy="66.7" r="8.2"/>
                <circle class="cls-8" cx="117.6" cy="66.7" r="8.2"/>
                <circle class="cls-8" cx="148" cy="66.7" r="8.2"/>
                <circle class="cls-8" cx="178.3" cy="66.7" r="8.2"/>
                <circle class="cls-8" cx="208.7" cy="66.7" r="8.2"/>
              </g>
              <g>
                <circle class="cls-8" cx="26.5" cy="99.3" r="8.2" transform="translate(-35.8 17.6) rotate(-22.4)"/>
                <circle class="cls-8" cx="56.9" cy="99.3" r="8.2" transform="translate(-33.5 29.1) rotate(-22.4)"/>
                <circle class="cls-8" cx="87.2" cy="99.3" r="8.2" transform="translate(-31.2 40.7) rotate(-22.4)"/>
                <circle class="cls-8" cx="117.6" cy="99.3" r="8.2" transform="translate(-35.8 112.2) rotate(-45)"/>
                <circle class="cls-8" cx="148" cy="99.3" r="8.2" transform="translate(-26.7 63.8) rotate(-22.4)"/>
                <circle class="cls-7" cx="178.3" cy="99.3" r="8.2" transform="translate(-24.4 75.4) rotate(-22.4)"/>
                <circle class="cls-8" cx="208.7" cy="99.3" r="8.2" transform="translate(-22.1 87) rotate(-22.4)"/>
              </g>
              <g>
                <circle class="cls-8" cx="26.5" cy="131.9" r="8.2"/>
                <circle class="cls-8" cx="56.9" cy="131.9" r="8.2"/>
                <circle class="cls-8" cx="87.2" cy="131.9" r="8.2"/>
                <circle class="cls-8" cx="117.6" cy="131.9" r="8.2"/>
                <circle class="cls-8" cx="148" cy="131.9" r="8.2"/>
                <circle class="cls-8" cx="178.3" cy="131.9" r="8.2"/>
                <circle class="cls-8" cx="208.7" cy="131.9" r="8.2"/>
              </g>
              <g>
                <circle class="cls-8" cx="26.5" cy="164.4" r="8.2" transform="translate(-65 25.3) rotate(-24.2)"/>
                <circle class="cls-8" cx="56.9" cy="164.4" r="8.2" transform="translate(-62.4 37.7) rotate(-24.2)"/>
                <circle class="cls-8" cx="87.2" cy="164.4" r="8.2" transform="translate(-59.7 50.2) rotate(-24.2)"/>
                <circle class="cls-8" cx="117.6" cy="164.4" r="8.2" transform="translate(-82.6 136.5) rotate(-46.5)"/>
                <circle class="cls-8" cx="148" cy="164.4" r="8.2" transform="translate(-54.4 75.1) rotate(-24.2)"/>
                <circle class="cls-8" cx="178.3" cy="164.4" r="8.2" transform="translate(-51.7 87.5) rotate(-24.2)"/>
                <circle class="cls-8" cx="208.7" cy="164.4" r="8.2" transform="translate(-49 99.9) rotate(-24.2)"/>
              </g>
            </g>
            <path class="cls-7" d="M11.8,8.1H223.4c6.5,0,11.8,5.3,11.8,11.8v22.1H0V19.9c0-6.5,5.3-11.8,11.8-11.8Z"/>
          </g>
          <g>
            <g class="cls-5">
              <path class="cls-7" d="M17.6,8.1v9.7c0,2.2,1.8,4,4,4s4-1.8,4-4V8.1h-8Z"/>
            </g>
            <g>
              <path class="cls-4" d="M20.1,21.8h0c-2.2,0-4-1.8-4-4V4c0-2.2,1.8-4,4-4h0c2.2,0,4,1.8,4,4v13.8c0,2.2-1.8,4-4,4Z"/>
              <path class="cls-3" d="M20.1,0c-.3,0-.6,0-.9,.1,.6,.1,1.1,.4,1.6,.8,0,0,.1,0,.2,.1,.1,0,.2,.2,.3,.3,0,0,.1,.2,.2,.2,0,0,.1,.2,.2,.3,0,.1,.1,.2,.2,.3,0,0,0,.2,.1,.3,0,.1,0,.3,.1,.4,0,0,0,.2,0,.2,0,.2,0,.5,0,.8v13.8c0,.3,0,.5,0,.8,0,0,0,.2,0,.2,0,.2,0,.3-.1,.4,0,0,0,.2-.1,.3,0,.1-.1,.2-.2,.3,0,.1-.1,.2-.2,.3,0,0-.1,.2-.2,.2,0,.1-.2,.2-.3,.3,0,0-.1,0-.2,.1-.5,.4-1,.7-1.6,.8,.3,0,.6,.1,.9,.1,2.2,0,4-1.8,4-4V4c0-2.2-1.8-4-4-4Z"/>
            </g>
          </g>
          <g>
            <g class="cls-5">
              <path class="cls-7" d="M41.7,8.1v9.7c0,2.2,1.8,4,4,4s4-1.8,4-4V8.1h-8Z"/>
            </g>
            <g>
              <rect class="cls-4" x="40.2" y="0" width="8" height="21.8" rx="4" ry="4"/>
              <path class="cls-3" d="M44.2,0c-.3,0-.6,0-.9,.1,.6,.1,1.1,.4,1.6,.8,0,0,.1,0,.2,.1,.1,0,.2,.2,.3,.3,0,0,.1,.2,.2,.2,0,0,.1,.2,.2,.3,0,.1,.1,.2,.2,.3,0,0,0,.2,.1,.3,0,.1,0,.3,.1,.4,0,0,0,.2,0,.2,0,.2,0,.5,0,.8v13.8c0,.3,0,.5,0,.8,0,0,0,.2,0,.2,0,.2,0,.3-.1,.4,0,0,0,.2-.1,.3,0,.1-.1,.2-.2,.3,0,.1-.1,.2-.2,.3,0,0-.1,.2-.2,.2,0,.1-.2,.2-.3,.3,0,0-.1,0-.2,.1-.5,.4-1,.7-1.6,.8,.3,0,.6,.1,.9,.1,2.2,0,4-1.8,4-4V4c0-2.2-1.8-4-4-4Z"/>
            </g>
          </g>
          <g>
            <g class="cls-5">
              <path class="cls-7" d="M65.8,8.1v9.7c0,2.2,1.8,4,4,4s4-1.8,4-4V8.1h-8Z"/>
            </g>
            <g>
              <path class="cls-4" d="M68.3,21.8h0c-2.2,0-4-1.8-4-4V4c0-2.2,1.8-4,4-4h0c2.2,0,4,1.8,4,4v13.8c0,2.2-1.8,4-4,4Z"/>
              <path class="cls-3" d="M68.3,0c-.3,0-.6,0-.9,.1,.6,.1,1.1,.4,1.6,.8,0,0,.1,0,.2,.1,.1,0,.2,.2,.3,.3,0,0,.1,.2,.2,.2,0,0,.1,.2,.2,.3,0,.1,.1,.2,.2,.3,0,0,0,.2,.1,.3,0,.1,0,.3,.1,.4,0,0,0,.2,0,.2,0,.2,0,.5,0,.8v13.8c0,.3,0,.5,0,.8,0,0,0,.2,0,.2,0,.2,0,.3-.1,.4,0,0,0,.2-.1,.3,0,.1-.1,.2-.2,.3,0,.1-.1,.2-.2,.3,0,0-.1,.2-.2,.2,0,.1-.2,.2-.3,.3,0,0-.1,0-.2,.1-.5,.4-1,.7-1.6,.8,.3,0,.6,.1,.9,.1,2.2,0,4-1.8,4-4V4c0-2.2-1.8-4-4-4Z"/>
            </g>
          </g>
          <g>
            <g class="cls-5">
              <path class="cls-7" d="M89.9,8.1v9.7c0,2.2,1.8,4,4,4s4-1.8,4-4V8.1h-8Z"/>
            </g>
            <g>
              <path class="cls-4" d="M92.3,21.8h0c-2.2,0-4-1.8-4-4V4c0-2.2,1.8-4,4-4h0c2.2,0,4,1.8,4,4v13.8c0,2.2-1.8,4-4,4Z"/>
              <path class="cls-3" d="M92.3,0c-.3,0-.6,0-.9,.1,.6,.1,1.1,.4,1.6,.8,0,0,.1,0,.2,.1,.1,0,.2,.2,.3,.3,0,0,.1,.2,.2,.2,0,0,.1,.2,.2,.3,0,.1,.1,.2,.2,.3,0,0,0,.2,.1,.3,0,.1,0,.3,.1,.4,0,0,0,.2,0,.2,0,.2,0,.5,0,.8v13.8c0,.3,0,.5,0,.8,0,0,0,.2,0,.2,0,.2,0,.3-.1,.4,0,0,0,.2-.1,.3,0,.1-.1,.2-.2,.3,0,.1-.1,.2-.2,.3,0,0-.1,.2-.2,.2,0,.1-.2,.2-.3,.3,0,0-.1,0-.2,.1-.5,.4-1,.7-1.6,.8,.3,0,.6,.1,.9,.1,2.2,0,4-1.8,4-4V4c0-2.2-1.8-4-4-4Z"/>
            </g>
          </g>
          <g>
            <g class="cls-5">
              <path class="cls-7" d="M113.9,8.1v9.7c0,2.2,1.8,4,4,4s4-1.8,4-4V8.1h-8Z"/>
            </g>
            <g>
              <path class="cls-4" d="M116.4,21.8h0c-2.2,0-4-1.8-4-4V4c0-2.2,1.8-4,4-4h0c2.2,0,4,1.8,4,4v13.8c0,2.2-1.8,4-4,4Z"/>
              <path class="cls-3" d="M116.4,0c-.3,0-.6,0-.9,.1,.6,.1,1.1,.4,1.6,.8,0,0,.1,0,.2,.1,.1,0,.2,.2,.3,.3,0,0,.1,.2,.2,.2,0,0,.1,.2,.2,.3,0,.1,.1,.2,.2,.3,0,0,0,.2,.1,.3,0,.1,0,.3,.1,.4,0,0,0,.2,0,.2,0,.2,0,.5,0,.8v13.8c0,.3,0,.5,0,.8,0,0,0,.2,0,.2,0,.2,0,.3-.1,.4,0,0,0,.2-.1,.3,0,.1-.1,.2-.2,.3,0,.1-.1,.2-.2,.3,0,0-.1,.2-.2,.2,0,.1-.2,.2-.3,.3,0,0-.1,0-.2,.1-.5,.4-1,.7-1.6,.8,.3,0,.6,.1,.9,.1,2.2,0,4-1.8,4-4V4c0-2.2-1.8-4-4-4Z"/>
            </g>
          </g>
          <g>
            <g class="cls-5">
              <path class="cls-7" d="M138,8.1v9.7c0,2.2,1.8,4,4,4s4-1.8,4-4V8.1h-8Z"/>
            </g>
            <g>
              <path class="cls-4" d="M140.5,21.8h0c-2.2,0-4-1.8-4-4V4c0-2.2,1.8-4,4-4h0c2.2,0,4,1.8,4,4v13.8c0,2.2-1.8,4-4,4Z"/>
              <path class="cls-3" d="M140.5,0c-.3,0-.6,0-.9,.1,.6,.1,1.1,.4,1.6,.8,0,0,.1,0,.2,.1,.1,0,.2,.2,.3,.3,0,0,.1,.2,.2,.2,0,0,.1,.2,.2,.3,0,.1,.1,.2,.2,.3,0,0,0,.2,.1,.3,0,.1,0,.3,.1,.4,0,0,0,.2,0,.2,0,.2,0,.5,0,.8v13.8c0,.3,0,.5,0,.8,0,0,0,.2,0,.2,0,.2,0,.3-.1,.4,0,0,0,.2-.1,.3,0,.1-.1,.2-.2,.3,0,.1-.1,.2-.2,.3,0,0-.1,.2-.2,.2,0,.1-.2,.2-.3,.3,0,0-.1,0-.2,.1-.5,.4-1,.7-1.6,.8,.3,0,.6,.1,.9,.1,2.2,0,4-1.8,4-4V4c0-2.2-1.8-4-4-4Z"/>
            </g>
          </g>
          <g>
            <g class="cls-5">
              <path class="cls-7" d="M162.1,8.1v9.7c0,2.2,1.8,4,4,4s4-1.8,4-4V8.1h-8Z"/>
            </g>
            <g>
              <path class="cls-4" d="M164.6,21.8h0c-2.2,0-4-1.8-4-4V4c0-2.2,1.8-4,4-4h0c2.2,0,4,1.8,4,4v13.8c0,2.2-1.8,4-4,4Z"/>
              <path class="cls-3" d="M164.6,0c-.3,0-.6,0-.9,.1,.6,.1,1.1,.4,1.6,.8,0,0,.1,0,.2,.1,.1,0,.2,.2,.3,.3,0,0,.1,.2,.2,.2,0,0,.1,.2,.2,.3,0,.1,.1,.2,.2,.3,0,0,0,.2,.1,.3,0,.1,0,.3,.1,.4,0,0,0,.2,0,.2,0,.2,0,.5,0,.8v13.8c0,.3,0,.5,0,.8,0,0,0,.2,0,.2,0,.2,0,.3-.1,.4,0,0,0,.2-.1,.3,0,.1-.1,.2-.2,.3,0,.1-.1,.2-.2,.3,0,0-.1,.2-.2,.2,0,.1-.2,.2-.3,.3,0,0-.1,0-.2,.1-.5,.4-1,.7-1.6,.8,.3,0,.6,.1,.9,.1,2.2,0,4-1.8,4-4V4c0-2.2-1.8-4-4-4Z"/>
            </g>
          </g>
          <g>
            <g class="cls-5">
              <path class="cls-7" d="M186.2,8.1v9.7c0,2.2,1.8,4,4,4s4-1.8,4-4V8.1h-8Z"/>
            </g>
            <g>
              <path class="cls-4" d="M188.6,21.8h0c-2.2,0-4-1.8-4-4V4c0-2.2,1.8-4,4-4h0c2.2,0,4,1.8,4,4v13.8c0,2.2-1.8,4-4,4Z"/>
              <path class="cls-3" d="M188.6,0c-.3,0-.6,0-.9,.1,.6,.1,1.1,.4,1.6,.8,0,0,.1,0,.2,.1,.1,0,.2,.2,.3,.3,0,0,.1,.2,.2,.2,0,0,.1,.2,.2,.3,0,.1,.1,.2,.2,.3,0,0,0,.2,.1,.3,0,.1,0,.3,.1,.4,0,0,0,.2,0,.2,0,.2,0,.5,0,.8v13.8c0,.3,0,.5,0,.8,0,0,0,.2,0,.2,0,.2,0,.3-.1,.4,0,0,0,.2-.1,.3,0,.1-.1,.2-.2,.3,0,.1-.1,.2-.2,.3,0,0-.1,.2-.2,.2,0,.1-.2,.2-.3,.3,0,0-.1,0-.2,.1-.5,.4-1,.7-1.6,.8,.3,0,.6,.1,.9,.1,2.2,0,4-1.8,4-4V4c0-2.2-1.8-4-4-4Z"/>
            </g>
          </g>
          <g>
            <g class="cls-5">
              <path class="cls-7" d="M210.2,8.1v9.7c0,2.2,1.8,4,4,4s4-1.8,4-4V8.1h-8Z"/>
            </g>
            <g>
              <path class="cls-4" d="M212.7,21.8h0c-2.2,0-4-1.8-4-4V4c0-2.2,1.8-4,4-4h0c2.2,0,4,1.8,4,4v13.8c0,2.2-1.8,4-4,4Z"/>
              <path class="cls-3" d="M212.7,0c-.3,0-.6,0-.9,.1,.6,.1,1.1,.4,1.6,.8,0,0,.1,0,.2,.1,.1,0,.2,.2,.3,.3,0,0,.1,.2,.2,.2,0,0,.1,.2,.2,.3,0,.1,.1,.2,.2,.3,0,0,0,.2,.1,.3,0,.1,0,.3,.1,.4,0,0,0,.2,0,.2,0,.2,0,.5,0,.8v13.8c0,.3,0,.5,0,.8,0,0,0,.2,0,.2,0,.2,0,.3-.1,.4,0,0,0,.2-.1,.3,0,.1-.1,.2-.2,.3,0,.1-.1,.2-.2,.3,0,0-.1,.2-.2,.2,0,.1-.2,.2-.3,.3,0,0-.1,0-.2,.1-.5,.4-1,.7-1.6,.8,.3,0,.6,.1,.9,.1,2.2,0,4-1.8,4-4V4c0-2.2-1.8-4-4-4Z"/>
            </g>
          </g>
        </g>
        <g>
          <path class="cls-2" d="M83.9,34v1.6c0,2-1,3.1-2.9,3.1s-2.9-1.1-2.9-3.1v-6.4c0-2,1-3.1,2.9-3.1s2.9,1.1,2.9,3.1v1.2h-1.8v-1.3c0-.9-.4-1.2-1-1.2s-1,.3-1,1.2v6.6c0,.9,.4,1.2,1,1.2s1-.3,1-1.2v-1.8h1.8Z"/>
          <path class="cls-2" d="M94.9,38.6h-1.9l-.3-2.2h-2.4l-.3,2.2h-1.8l2-12.3h2.8l2,12.3Zm-4.4-3.9h1.9l-.9-6.2-.9,6.2Z"/>
          <path class="cls-2" d="M99.3,26.3h1.9v10.5h3.2v1.8h-5.1v-12.3Z"/>
          <path class="cls-2" d="M110.7,31.5h2.7v1.8h-2.7v3.6h3.3v1.8h-5.3v-12.3h5.3v1.8h-3.3v3.4Z"/>
          <path class="cls-2" d="M120.4,29.7v8.9h-1.7v-12.3h2.4l2,7.4v-7.4h1.7v12.3h-2l-2.4-8.9Z"/>
          <path class="cls-2" d="M129.7,26.3h3.1c1.9,0,2.9,1.1,2.9,3v6.2c0,2-.9,3-2.9,3h-3.1v-12.3Zm1.9,1.8v8.8h1.1c.6,0,1-.3,1-1.2v-6.4c0-.9-.4-1.2-1-1.2h-1.1Z"/>
          <path class="cls-2" d="M146.6,38.6h-1.9l-.3-2.2h-2.4l-.3,2.2h-1.8l2-12.3h2.8l2,12.3Zm-4.4-3.9h1.9l-.9-6.2-.9,6.2Z"/>
          <path class="cls-2" d="M155.1,38.6c-.1-.3-.2-.5-.2-1.5v-1.9c0-1.1-.4-1.6-1.3-1.6h-.7v5h-1.9v-12.3h2.9c2,0,2.9,.9,2.9,2.8v1c0,1.3-.4,2.1-1.3,2.5,1,.4,1.3,1.3,1.3,2.6v1.9c0,.6,0,1,.2,1.5h-2Zm-2.1-10.5v3.8h.8c.7,0,1.2-.3,1.2-1.3v-1.2c0-.9-.3-1.3-1-1.3h-.9Z"/>
        </g>
      </g>
    </g>
  </g>
</svg>