<?xml version="1.0" encoding="UTF-8"?>
<svg xmlns="http://www.w3.org/2000/svg" xmlns:xlink="http://www.w3.org/1999/xlink" viewBox="0 0 2797.7 2800">
  <defs>
    <style>
      .cls-1 {
        fill: url(#linear-gradient-27);
      }

      .cls-2 {
        fill: url(#linear-gradient-24);
      }

      .cls-3 {
        fill: url(#linear-gradient-32);
      }

      .cls-4, .cls-5, .cls-6 {
        fill: #fff;
      }

      .cls-7 {
        fill: url(#linear-gradient-20);
      }

      .cls-8 {
        fill: url(#linear-gradient-5);
      }

      .cls-9 {
        fill: url(#linear-gradient-6);
      }

      .cls-10 {
        fill: url(#linear-gradient-23);
      }

      .cls-11 {
        fill: url(#linear-gradient-15);
      }

      .cls-12 {
        fill: url(#linear-gradient-8);
      }

      .cls-13 {
        fill: url(#linear-gradient);
      }

      .cls-14 {
        fill: url(#linear-gradient-7);
      }

      .cls-15 {
        fill: url(#linear-gradient-36);
      }

      .cls-16 {
        fill: url(#linear-gradient-14);
      }

      .cls-17 {
        fill: url(#linear-gradient-35);
      }

      .cls-18 {
        fill: url(#linear-gradient-18);
      }

      .cls-19 {
        fill: url(#linear-gradient-26);
      }

      .cls-5 {
        opacity: .5;
      }

      .cls-20 {
        fill: url(#linear-gradient-29);
      }

      .cls-21 {
        fill: url(#linear-gradient-9);
      }

      .cls-22 {
        fill: url(#linear-gradient-10);
      }

      .cls-23 {
        fill: #91b3fa;
      }

      .cls-24 {
        fill: url(#linear-gradient-2);
      }

      .cls-25 {
        fill: url(#linear-gradient-41);
      }

      .cls-26 {
        fill: url(#linear-gradient-33);
      }

      .cls-27 {
        fill: url(#linear-gradient-40);
      }

      .cls-28 {
        fill: url(#linear-gradient-30);
      }

      .cls-29 {
        fill: url(#linear-gradient-34);
      }

      .cls-30 {
        fill: url(#linear-gradient-16);
      }

      .cls-31 {
        fill: url(#linear-gradient-37);
      }

      .cls-32 {
        fill: url(#linear-gradient-39);
      }

      .cls-33 {
        fill: url(#linear-gradient-12);
      }

      .cls-34 {
        fill: url(#linear-gradient-28);
      }

      .cls-35 {
        fill: url(#linear-gradient-11);
      }

      .cls-36 {
        fill: url(#linear-gradient-4);
      }

      .cls-37 {
        fill: url(#linear-gradient-19);
      }

      .cls-38 {
        fill: url(#linear-gradient-42);
      }

      .cls-39 {
        fill: url(#linear-gradient-25);
      }

      .cls-40 {
        fill: url(#linear-gradient-3);
      }

      .cls-41 {
        fill: url(#linear-gradient-38);
      }

      .cls-42 {
        fill: url(#linear-gradient-17);
      }

      .cls-6 {
        opacity: .8;
      }

      .cls-43 {
        fill: url(#linear-gradient-21);
      }

      .cls-44 {
        fill: #bdd0fb;
      }

      .cls-45 {
        fill: url(#linear-gradient-13);
      }

      .cls-46 {
        fill: url(#linear-gradient-22);
      }

      .cls-47 {
        fill: url(#linear-gradient-31);
      }
    </style>
    <linearGradient id="linear-gradient" x1="3035.3" y1="3495.1" x2="634" y2="512.9" gradientTransform="matrix(1, 0, 0, 1, 0, 0)" gradientUnits="userSpaceOnUse">
      <stop offset="0" stop-color="#dae3fe"/>
      <stop offset="1" stop-color="#e9effd"/>
    </linearGradient>
    <linearGradient id="linear-gradient-2" x1="1099" y1="1938.5" x2="1159.6" y2="1020" gradientTransform="matrix(1, 0, 0, 1, 0, 0)" gradientUnits="userSpaceOnUse">
      <stop offset="0" stop-color="#4f52ff"/>
      <stop offset="1" stop-color="#4042e2"/>
    </linearGradient>
    <linearGradient id="linear-gradient-3" x1="292.4" y1="777.1" x2="520" y2="512.9" gradientTransform="translate(512.6 -222.3) rotate(45)" gradientUnits="userSpaceOnUse">
      <stop offset="0" stop-color="#ff928e"/>
      <stop offset="1" stop-color="#fe7062"/>
    </linearGradient>
    <linearGradient id="linear-gradient-4" x1="648.6" y1="320.2" x2="-24.4" y2="1337" gradientTransform="translate(512.6 -222.3) rotate(45)" xlink:href="#linear-gradient-3"/>
    <linearGradient id="linear-gradient-5" x1="628.6" y1="349.4" x2="270.2" y2="951" gradientTransform="matrix(1, 0, 0, 1, 0, 0)" xlink:href="#linear-gradient-3"/>
    <linearGradient id="linear-gradient-6" x1="603.4" y1="775.5" x2="999.6" y2="315.6" gradientTransform="translate(511.7 -622.8) rotate(45)" xlink:href="#linear-gradient-3"/>
    <linearGradient id="linear-gradient-7" x1="1223.5" y1="-19.8" x2="51.9" y2="1750.2" gradientTransform="translate(511.7 -622.8) rotate(45)" xlink:href="#linear-gradient-3"/>
    <linearGradient id="linear-gradient-8" x1="1188.6" y1="30.9" x2="564.7" y2="1078.3" gradientTransform="matrix(1, 0, 0, 1, 0, 0)" xlink:href="#linear-gradient-3"/>
    <linearGradient id="linear-gradient-9" x1="734.9" y1="1552.6" x2="1142.6" y2="1079.4" gradientTransform="translate(1093.6 -500.4) rotate(45)" xlink:href="#linear-gradient-3"/>
    <linearGradient id="linear-gradient-10" x1="1373" y1="734.3" x2="167.4" y2="2555.6" gradientTransform="translate(1093.6 -500.4) rotate(45)" xlink:href="#linear-gradient-3"/>
    <linearGradient id="linear-gradient-11" x1="1337" y1="786.5" x2="695.1" y2="1864.2" gradientTransform="matrix(1, 0, 0, 1, 0, 0)" xlink:href="#linear-gradient-3"/>
    <linearGradient id="linear-gradient-12" x1="1310.2" y1="612.7" x2="1568.9" y2="312.4" gradientTransform="translate(677.7 -1023.3) rotate(45)" xlink:href="#linear-gradient-3"/>
    <linearGradient id="linear-gradient-13" x1="1715.1" y1="93.4" x2="950.1" y2="1249" gradientTransform="translate(677.7 -1023.3) rotate(45)" xlink:href="#linear-gradient-3"/>
    <linearGradient id="linear-gradient-14" x1="1692.2" y1="126.5" x2="1284.9" y2="810.3" gradientTransform="matrix(1, 0, 0, 1, 0, 0)" xlink:href="#linear-gradient-3"/>
    <linearGradient id="linear-gradient-15" x1="3103.8" y1="3513.3" x2="3025.5" y2="4521.9" gradientTransform="translate(-3446 -1197.4) rotate(-23.9)" gradientUnits="userSpaceOnUse">
      <stop offset="0" stop-color="#50e7b7"/>
      <stop offset="1" stop-color="#323992"/>
    </linearGradient>
    <linearGradient id="linear-gradient-16" x1="3130.3" y1="3485.3" x2="3052" y2="4493.9" gradientTransform="translate(-3475.4 -1195.8) rotate(-23.9)" xlink:href="#linear-gradient-15"/>
    <linearGradient id="linear-gradient-17" x1="467.2" y1="901.3" x2="592.1" y2="901.3" xlink:href="#linear-gradient"/>
    <linearGradient id="linear-gradient-18" x1="1058.8" y1="631.5" x2="1182.2" y2="631.5" xlink:href="#linear-gradient"/>
    <linearGradient id="linear-gradient-19" x1="2259.7" y1="423" x2="-202.8" y2="3670.9" gradientTransform="translate(-504.4 653) rotate(-18.1) scale(1 .9)" xlink:href="#linear-gradient-2"/>
    <linearGradient id="linear-gradient-20" x1="2378.9" y1="-265.1" x2="1823.7" y2="441.5" gradientTransform="matrix(1, 0, 0, 1, 0, 0)" gradientUnits="userSpaceOnUse">
      <stop offset="0" stop-color="#09005d"/>
      <stop offset="1" stop-color="#1a0f91"/>
    </linearGradient>
    <linearGradient id="linear-gradient-21" x1="1640.9" y1="1271.6" x2="-243.5" y2="4435.3" gradientTransform="translate(332.4 -252.6) rotate(5.8)" xlink:href="#linear-gradient-3"/>
    <linearGradient id="linear-gradient-22" x1="-4534.8" y1="1063.4" x2="-4588.4" y2="1119.4" gradientTransform="translate(-2790.8) rotate(-180) scale(1 -1)" gradientUnits="userSpaceOnUse">
      <stop offset="0" stop-color="#febbba"/>
      <stop offset="1" stop-color="#ff928e"/>
    </linearGradient>
    <linearGradient id="linear-gradient-23" x1="-5213.7" y1="2153.4" x2="-5228" y2="2258.9" gradientTransform="translate(-2790.8) rotate(-180) scale(1 -1)" xlink:href="#linear-gradient-20"/>
    <linearGradient id="linear-gradient-24" x1="-5219.1" y1="2233" x2="-5252.1" y2="2443" gradientTransform="translate(-2790.8) rotate(-180) scale(1 -1)" xlink:href="#linear-gradient-20"/>
    <linearGradient id="linear-gradient-25" x1="-5276.6" y1="2173.3" x2="-5234.1" y2="2173.3" xlink:href="#linear-gradient-22"/>
    <linearGradient id="linear-gradient-26" x1="-5094.7" y1="2024" x2="-5192.8" y2="2106.1" gradientTransform="translate(-2790.8) rotate(-180) scale(1 -1)" xlink:href="#linear-gradient-20"/>
    <linearGradient id="linear-gradient-27" x1="-5127.4" y1="2003.3" x2="-5016.8" y2="2003.3" gradientTransform="translate(-2790.8) rotate(-180) scale(1 -1)" xlink:href="#linear-gradient-20"/>
    <linearGradient id="linear-gradient-28" x1="-5099.1" y1="1937.1" x2="-5039.5" y2="1937.1" xlink:href="#linear-gradient-22"/>
    <linearGradient id="linear-gradient-29" x1="-4970.5" y1="1665.7" x2="-5405.7" y2="2051.7" gradientTransform="translate(-2790.8) rotate(-180) scale(1 -1)" xlink:href="#linear-gradient-20"/>
    <linearGradient id="linear-gradient-30" x1="2459.5" y1="1674.7" x2="3060.7" y2="1497.5" xlink:href="#linear-gradient-20"/>
    <linearGradient id="linear-gradient-31" x1="-4880.3" y1="1615.4" x2="-4793.1" y2="1615.4" xlink:href="#linear-gradient-22"/>
    <linearGradient id="linear-gradient-32" x1="2334.8" y1="1785.9" x2="2153.2" y2="1530.2" gradientTransform="matrix(1, 0, 0, 1, 0, 0)" xlink:href="#linear-gradient-3"/>
    <linearGradient id="linear-gradient-33" x1="-5021" y1="1272.3" x2="-5003.1" y2="1214.3" xlink:href="#linear-gradient-22"/>
    <linearGradient id="linear-gradient-34" x1="-4933.5" y1="1112.2" x2="-5063" y2="1211.3" xlink:href="#linear-gradient-22"/>
    <linearGradient id="linear-gradient-35" x1="-5024.5" y1="1034" x2="-4907.2" y2="1185" gradientTransform="translate(-2790.8) rotate(-180) scale(1 -1)" xlink:href="#linear-gradient-20"/>
    <linearGradient id="linear-gradient-36" x1="-4949.5" y1="1091.2" x2="-5079.1" y2="1190.3" xlink:href="#linear-gradient-22"/>
    <linearGradient id="linear-gradient-37" x1="-4646.5" y1="1132.1" x2="-4481.3" y2="1132.1" xlink:href="#linear-gradient-22"/>
    <linearGradient id="linear-gradient-38" x1="3133" y1="2134.7" x2="2296.4" y2="1459.5" gradientTransform="matrix(1, 0, 0, 1, 0, 0)" xlink:href="#linear-gradient-3"/>
    <linearGradient id="linear-gradient-39" x1="-4965.5" y1="1329.4" x2="-4974.5" y2="1475.5" gradientTransform="translate(-2790.8) rotate(-180) scale(1 -1)" xlink:href="#linear-gradient-3"/>
    <linearGradient id="linear-gradient-40" x1="2455.6" y1="1001.2" x2="2866.1" y2="524.7" gradientTransform="translate(121.3 -1580.7) rotate(45.6)" xlink:href="#linear-gradient-3"/>
    <linearGradient id="linear-gradient-41" x1="1967.3" y1="609.9" x2="2449.6" y2="80.6" gradientTransform="translate(1106.2 -1002.4) rotate(45)" xlink:href="#linear-gradient-3"/>
    <linearGradient id="linear-gradient-42" x1="2029" y1="-486" x2="1413.4" y2="547.3" gradientTransform="translate(-72.4 538) rotate(15.8)" xlink:href="#linear-gradient-3"/>
  </defs>
  <g id="Background"/>
  <g id="Illustration">
    <g>
      <path class="cls-13" d="M2374.7,2319c-55.2,58.1-107.3,95.5-148.6,125.1-484.7,347.8-1058.2,246.4-1180.1,221.6-180-36.6-527.9-107.2-779.4-403C-113.9,1815.2-54.7,1110.1,240.5,644.7,294.5,559.6,579.7,87.1,1159.4,11.3c350.8-45.9,759.8,46.6,1055.9,294.7,621.6,520.8,577.4,1572.9,159.4,2012.9Z"/>
      <g>
        <path class="cls-24" d="M905.5,1113.6c66.4,6.6,133.3,13.1,199.6,6.3,65.1-6.7,128.2-26,192.6-37.5,86.5-15.4,175.5-16.3,262.4-2.8,77.9,12.1,154.9,35.9,233.7,33.8,78.8-2.1,163.8-37.4,195.3-109.7,3.9-8.9,6.9-18.6,5.9-28.2-2.8-27.9-34.9-41.4-62-48.7-313.6-85-640.9-114.7-965-98.8-152.6,7.5-305.2,28-456.5,41.9-62.5,5.7-262.5,119.7-151.3,188.7,28.1,17.5,99,11,131.9,14.2,45.9,4.5,91.8,9.1,137.8,13.6,91.8,9.1,183.7,18.1,275.5,27.2Z"/>
        <g>
          <g>
            <circle class="cls-40" cx="524.6" cy="507.6" r="169.7" transform="translate(-205.2 519.6) rotate(-45)"/>
            <circle class="cls-36" cx="524.6" cy="507.6" r="164" transform="translate(-205.2 519.6) rotate(-45)"/>
            <path class="cls-6" d="M389.4,446.3c-1,0-2.1-.2-3.1-.7-3.4-1.7-4.8-5.9-3-9.3,27.1-53.7,81.3-87.1,141.4-87.1s19.2,.9,28.6,2.6c3.7,.7,6.2,4.3,5.5,8-.7,3.7-4.3,6.3-8,5.5-8.5-1.6-17.3-2.3-26.1-2.3-54.9,0-104.4,30.5-129.1,79.5-1.2,2.4-3.6,3.8-6.2,3.8Z"/>
            <circle class="cls-6" cx="528.2" cy="511.1" r="138.8" transform="translate(-206.7 523.2) rotate(-45)"/>
            <path class="cls-8" d="M514.6,614.4v-15.1c-15.7-.6-31.3-4.3-42.4-9.2-4-1.7-6-6.2-4.8-10.3l3.8-14.1c1.4-5.2,7-7.8,12-5.8,11,4.6,24.5,8.2,39.1,8.2s26.5-5.1,26.5-15.7-8.7-15.2-29.8-20.8c-30.1-8.2-51.7-21.3-51.7-47.8s17.5-42.2,47.8-47v-15.1c0-4.9,3.9-8.8,8.8-8.8h8.9c4.9,0,8.8,3.9,8.8,8.8v13.6c14.6,.6,25.2,3.1,33.6,6,4.3,1.5,6.7,6.2,5.5,10.6l-3.5,13c-1.4,5-6.7,7.8-11.6,5.9-7.7-2.9-18.7-6-32.9-6s-23.1,7.5-23.1,14.1,10.8,13.9,34.2,21.1c33.4,10,47.3,23.9,47.3,48.8s-17,43.4-49.9,48.6v16.9c0,4.9-3.9,8.8-8.8,8.8h-8.9c-4.9,0-8.8-3.9-8.8-8.8Z"/>
          </g>
          <g>
            <circle class="cls-9" cx="1007.6" cy="306.3" r="295.4" transform="translate(78.5 802.2) rotate(-45)"/>
            <circle class="cls-14" cx="1007.6" cy="306.3" r="285.6" transform="translate(78.5 802.2) rotate(-45)"/>
            <path class="cls-6" d="M772.2,194.6c-1,0-2.1-.2-3.1-.7-3.4-1.7-4.8-5.9-3-9.3,46.3-91.8,138.9-148.8,241.6-148.8s32.8,1.5,48.8,4.4c3.7,.7,6.2,4.3,5.5,8-.7,3.7-4.3,6.3-8,5.5-15.2-2.8-30.8-4.2-46.3-4.2-97.5,0-185.4,54.1-229.3,141.2-1.2,2.4-3.6,3.8-6.2,3.8Z"/>
            <circle class="cls-6" cx="1013.9" cy="312.6" r="241.7" transform="translate(75.9 808.5) rotate(-45)"/>
            <path class="cls-12" d="M990.1,492.3v-26.3c-27.4-1.1-54.5-7.6-73.8-16-6.9-3-10.4-10.7-8.4-18l6.7-24.5c2.5-9,12.2-13.6,20.8-10,19.1,8,42.7,14.3,68.1,14.3s46.1-9,46.1-27.3-15.2-26.4-51.9-36.2c-52.4-14.3-89.9-37.1-89.9-83.2s30.4-73.4,83.2-81.9v-26.3c0-8.5,6.9-15.3,15.3-15.3h15.4c8.5,0,15.3,6.9,15.3,15.3v23.6c25.4,1,43.8,5.4,58.5,10.5,7.5,2.6,11.6,10.7,9.5,18.4l-6.1,22.7c-2.4,8.7-11.7,13.5-20.2,10.3-13.5-5.1-32.6-10.4-57.4-10.4s-40.3,13-40.3,24.6,18.8,24.2,59.5,36.7c58.2,17.5,82.3,41.6,82.3,85s-29.5,75.6-86.8,84.6v29.4c0,8.5-6.9,15.3-15.3,15.3h-15.5c-8.5,0-15.3-6.9-15.3-15.3Z"/>
          </g>
          <g>
            <circle class="cls-21" cx="1150.8" cy="1069.9" r="304" transform="translate(-419.4 1127.1) rotate(-45)"/>
            <circle class="cls-22" cx="1150.8" cy="1069.9" r="293.8" transform="translate(-419.4 1127.1) rotate(-45)"/>
            <path class="cls-6" d="M908.5,954.7c-1,0-2.1-.2-3.1-.7-3.4-1.7-4.8-5.9-3-9.3,47.6-94.4,142.8-153,248.5-153s33.7,1.5,50.2,4.5c3.7,.7,6.2,4.3,5.5,8-.7,3.7-4.3,6.3-8,5.5-15.7-2.8-31.7-4.3-47.7-4.3-100.4,0-190.9,55.7-236.2,145.4-1.2,2.4-3.6,3.8-6.2,3.8Z"/>
            <circle class="cls-6" cx="1157.2" cy="1076.3" r="248.7" transform="translate(-422.1 1133.5) rotate(-45)"/>
            <path class="cls-35" d="M1132.8,1261.2v-27.1c-28.2-1.1-56.1-7.8-75.9-16.5-7.1-3.1-10.7-11-8.7-18.5l6.9-25.2c2.5-9.2,12.6-14,21.4-10.3,19.7,8.2,43.9,14.8,70.1,14.8s47.4-9.2,47.4-28.1-15.7-27.2-53.4-37.3c-53.9-14.7-92.6-38.2-92.6-85.7s31.3-75.5,85.7-84.3v-27.1c0-8.7,7.1-15.8,15.8-15.8h15.9c8.7,0,15.8,7.1,15.8,15.8v24.3c26.1,1,45.1,5.5,60.2,10.8,7.7,2.7,11.9,11,9.8,18.9l-6.3,23.3c-2.4,9-12,13.9-20.8,10.6-13.9-5.2-33.5-10.7-59-10.7s-41.4,13.4-41.4,25.3,19.3,24.9,61.2,37.8c59.9,18,84.7,42.8,84.7,87.5s-30.4,77.8-89.3,87v30.3c0,8.7-7.1,15.8-15.8,15.8h-15.9c-8.7,0-15.8-7.1-15.8-15.8Z"/>
          </g>
          <g>
            <circle class="cls-33" cx="1574.1" cy="306.3" r="192.9" transform="translate(244.4 1202.8) rotate(-45)"/>
            <circle class="cls-45" cx="1574.1" cy="306.3" r="186.4" transform="translate(244.4 1202.8) rotate(-45)"/>
            <path class="cls-6" d="M1420.4,234.9c-.9,0-1.8-.2-2.7-.6-2.9-1.5-4.1-5.1-2.6-8,30.5-60.4,91.4-97.9,159.1-97.9s21.6,1,32.1,2.9c3.2,.6,5.4,3.7,4.8,6.9-.6,3.2-3.7,5.4-6.9,4.8-9.8-1.8-19.9-2.7-30-2.7-63.1,0-120,35-148.4,91.4-1,2.1-3.2,3.3-5.3,3.3Z"/>
            <circle class="cls-6" cx="1578.2" cy="310.4" r="157.8" transform="translate(242.7 1206.9) rotate(-45)"/>
            <path class="cls-16" d="M1562.7,427.7v-17.2c-17.9-.7-35.6-4.9-48.2-10.4-4.5-2-6.8-7-5.5-11.7l4.4-16c1.6-5.9,8-8.9,13.6-6.6,12.5,5.2,27.9,9.4,44.5,9.4s30.1-5.8,30.1-17.8-9.9-17.2-33.9-23.7c-34.2-9.3-58.7-24.3-58.7-54.3s19.9-47.9,54.3-53.5v-17.2c0-5.5,4.5-10,10-10h10.1c5.5,0,10,4.5,10,10v15.4c16.6,.7,28.6,3.5,38.2,6.9,4.9,1.7,7.6,7,6.2,12l-4,14.8c-1.5,5.7-7.6,8.8-13.2,6.7-8.8-3.3-21.3-6.8-37.4-6.8s-26.3,8.5-26.3,16.1,12.3,15.8,38.9,24c38,11.4,53.8,27.2,53.8,55.5s-19.3,49.4-56.7,55.2v19.2c0,5.5-4.5,10-10,10h-10.1c-5.5,0-10-4.5-10-10Z"/>
          </g>
        </g>
        <g>
          <g>
            <g>
              <rect class="cls-23" x="453.2" y="652.5" width="779.7" height="363.6" transform="translate(-238.8 1320.5) rotate(-68.9)"/>
              <path class="cls-5" d="M869.8,472.9l194.1,74.9c-6,15.6,3.2,34.3,20.5,40.9,.5,.2,1.9,.7,1.9,.7l-226.6,587.2s-1.3-.6-1.8-.8c-17.3-6.7-36.3,.5-42.5,16.4,0,.2-.3,.5-.3,.5l-189.7-73.2c10.3-26.8-6.5-36.1-23.8-42.8-.5-.2-.7,0-.8,0l226.6-587.2s0,0,.6,.3c17.3,6.7,35.7-1.3,41.8-16.9Z"/>
              <g>
                <circle class="cls-11" cx="842.3" cy="833.6" r="114.4" transform="translate(-342.7 839.7) rotate(-45)"/>
                <path class="cls-4" d="M910.1,872.1l-11.3-4.4c-5,11.6-12.3,22.1-19.1,29-2.4,2.5-6.3,2.7-9.1,.6l-9.4-6.9c-3.4-2.5-3.8-7.5-.9-10.6,6.6-6.9,13.2-15.9,17.4-26.9,4.4-11.3,3.8-21.3-4.1-24.3-7.1-2.7-13.8,2.2-24.1,16.3-14.8,20.1-30.8,32.4-50.6,24.8-17.9-6.9-26.5-25.2-21.4-49.3l-11.3-4.4c-3.6-1.4-5.4-5.5-4-9.1l2.6-6.6c1.4-3.6,5.5-5.4,9.1-4l10.1,3.9c4.6-10.7,9.6-17.9,14.2-23.4,2.4-2.8,6.5-3.2,9.5-1l8.7,6.4c3.4,2.5,3.9,7.3,1.1,10.4-4.4,4.9-9.9,12.2-14,22.9-5.2,13.4-1.1,19.4,3.9,21.4,6.1,2.4,13.5-4.1,25.6-19.5,17.1-22.1,31.5-28.4,50.1-21.3,17.1,6.6,27.6,25.2,21.9,51.3l12.6,4.9c3.6,1.4,5.4,5.5,4,9.1l-2.6,6.6c-1.4,3.6-5.5,5.4-9.1,4Z"/>
              </g>
            </g>
            <path class="cls-4" d="M625.2,1148.7c-.3,0-.6,0-.8-.2l-63.6-24.5c-1.2-.5-1.8-1.8-1.3-3l69.3-179.6c.5-1.2,1.8-1.8,3-1.3,1.2,.5,1.8,1.8,1.3,3l-68.5,177.5,61.4,23.7c1.2,.5,1.8,1.8,1.3,3-.4,.9-1.2,1.5-2.2,1.5Z"/>
            <path class="cls-4" d="M1057.4,729.6c-.3,0-.6,0-.8-.2-1.2-.5-1.8-1.8-1.3-3l67.6-175.2-65.9-25.4c-1.2-.5-1.8-1.8-1.3-3,.5-1.2,1.8-1.8,3-1.3l68.1,26.3c.6,.2,1,.7,1.3,1.2,.2,.6,.3,1.2,0,1.8l-68.4,177.4c-.4,.9-1.2,1.5-2.2,1.5Z"/>
          </g>
          <g>
            <g>
              <rect class="cls-44" x="437" y="616.9" width="779.7" height="366" transform="translate(-217 1283.4) rotate(-68.9)"/>
              <path class="cls-5" d="M853.2,438.2l194.1,74.9c-6,15.6,4,34.5,21.3,41.1,.5,.2,.5,0,2.7,.9l-226.6,587.2c-2.2-.9-2.1-.9-2.6-1.1-17.3-6.7-36.8,.5-42.9,16.4,0,.2-.7,.4-.7,.4l-189.7-73.2c10.3-26.8-6.8-36.4-24.1-43-.5-.2-1-.2-1.1-.2l226.6-587.2s.4,.3,.9,.5c17.3,6.7,36-1.1,42.1-16.7Z"/>
              <g>
                <circle class="cls-30" cx="825.7" cy="798.8" r="114.4" transform="translate(-323 817.8) rotate(-45)"/>
                <path class="cls-4" d="M893.5,837.3l-11.3-4.4c-5,11.6-12.3,22.1-19.1,29-2.4,2.5-6.3,2.7-9.1,.6l-9.4-6.9c-3.4-2.5-3.8-7.5-.9-10.6,6.6-6.9,13.2-15.9,17.4-26.9,4.4-11.3,3.8-21.3-4.1-24.3-7.1-2.7-13.8,2.2-24.1,16.3-14.8,20.1-30.8,32.4-50.6,24.8-17.9-6.9-26.5-25.2-21.4-49.3l-11.3-4.4c-3.6-1.4-5.4-5.5-4-9.1l2.6-6.6c1.4-3.6,5.5-5.4,9.1-4l10.1,3.9c4.6-10.7,9.6-17.9,14.2-23.4,2.4-2.8,6.5-3.2,9.5-1l8.7,6.4c3.4,2.5,3.9,7.3,1.1,10.4-4.4,4.9-9.9,12.2-14,22.9-5.2,13.4-1.1,19.4,3.9,21.4,6.1,2.4,13.5-4.1,25.6-19.5,17.1-22.1,31.5-28.4,50.1-21.3,17.1,6.6,27.6,25.2,21.9,51.3l12.6,4.9c3.6,1.4,5.4,5.5,4,9.1l-2.6,6.6c-1.4,3.6-5.5,5.4-9.1,4Z"/>
              </g>
            </g>
            <path class="cls-4" d="M611,1112.4c-.3,0-.6,0-.8-.2l-65.8-25.4c-.6-.2-1-.7-1.3-1.2-.2-.6-.3-1.2,0-1.8l68.4-177.4c.5-1.2,1.8-1.8,3-1.3,1.2,.5,1.8,1.8,1.3,3l-67.6,175.2,63.7,24.6c1.2,.5,1.8,1.8,1.3,3-.4,.9-1.2,1.5-2.2,1.5Z"/>
            <path class="cls-4" d="M1040.1,694.7c-.3,0-.6,0-.8-.2-1.2-.5-1.8-1.8-1.3-3l67.6-175.2-63.7-24.6c-1.2-.5-1.8-1.8-1.3-3,.5-1.2,1.8-1.8,3-1.3l65.8,25.4c.6,.2,1,.7,1.3,1.2,.2,.6,.3,1.2,0,1.8l-68.4,177.4c-.4,.9-1.2,1.5-2.2,1.5Z"/>
          </g>
          <g>
            <g>
              <g>
                <rect class="cls-23" x="435.6" y="582.9" width="779.7" height="366" transform="translate(-288.2 932.3) rotate(-51.4)"/>
                <path class="cls-5" d="M959.8,429.3l162.5,129.9c-10.5,13.1-6.8,34.1,7.7,45.7,.5,.4,.2,.2,2.1,1.7l-393.1,491.6c-1.8-1.5-1.6-1.3-2-1.7-14.5-11.6-35-10.7-45.6,2.6-.2,.2-.6,0-.6,0l-158.8-127c17.9-22.4,4.3-36.7-10.2-48.3-.5-.4-1.2-.5-1.2-.5l393.1-491.6s.5,.4,1,.8c14.5,11.6,34.9,9.8,45.4-3.3Z"/>
                <g>
                  <circle class="cls-23" cx="824.7" cy="765.1" r="114.4" transform="translate(-129.5 169.2) rotate(-10.9)"/>
                  <path class="cls-4" d="M877.8,822.3l-9.4-7.6c-8.3,9.5-18.4,17.4-26.9,21.9-3.1,1.6-6.8,.6-8.9-2.1l-6.9-9.4c-2.5-3.5-1.4-8.3,2.4-10.4,8.4-4.6,17.4-11.2,24.7-20.4,7.6-9.5,10-19.1,3.4-24.4-5.9-4.8-13.9-2.1-27.9,8.2-20.2,14.7-39.2,21.6-55.7,8.4-15-12-17.6-32-5.5-53.4l-9.4-7.6c-3-2.4-3.5-6.9-1.1-9.9l4.4-5.5c2.4-3,6.9-3.5,9.9-1.1l8.5,6.8c7.7-8.8,14.5-14.2,20.6-18,3.1-1.9,7.2-1.1,9.3,1.9l6.4,8.7c2.5,3.4,1.5,8.1-2.1,10.2-5.7,3.4-13.1,8.7-20.2,17.6-9,11.3-6.9,18.2-2.7,21.5,5.1,4.1,14.1,.2,30.3-10.8,23-15.9,38.6-17.6,54.2-5.2,14.3,11.4,18.7,32.3,5.4,55.5l10.6,8.5c3,2.4,3.5,6.9,1.1,9.9l-4.4,5.6c-2.4,3-6.9,3.5-9.9,1.1Z"/>
                </g>
              </g>
              <path class="cls-42" d="M524.6,1000.8c-.5,0-1-.2-1.4-.5l-55.1-44.1c-1-.8-1.2-2.3-.4-3.3l120.3-150.4c.8-1,2.3-1.2,3.3-.4,1,.8,1.2,2.3,.4,3.3l-118.8,148.6,53.3,42.6c1,.8,1.2,2.3,.4,3.3-.5,.6-1.1,.9-1.8,.9Z"/>
              <path class="cls-18" d="M1061.2,730.1c-.5,0-1-.2-1.4-.5-1-.8-1.2-2.3-.4-3.3l117.3-146.7-53.3-42.6c-1-.8-1.2-2.3-.4-3.3,.8-1,2.3-1.2,3.3-.4l55.1,44.1c.5,.4,.8,.9,.9,1.6,0,.6-.1,1.2-.5,1.7l-118.8,148.5c-.5,.6-1.1,.9-1.8,.9Z"/>
            </g>
            <g>
              <path class="cls-23" d="M707.3,928.8c14,11.2,16.2,31.6,5.1,45.5-11.2,14-31.6,16.2-45.5,5.1-14-11.2-16.2-31.6-5.1-45.5,11.2-14,31.6-16.2,45.5-5.1Z"/>
              <path class="cls-23" d="M1011.8,548.1c14,11.2,16.2,31.6,5.1,45.5-11.2,14-31.6,16.2-45.5,5.1-14-11.2-16.2-31.6-5.1-45.5,11.2-14,31.6-16.2,45.5-5.1Z"/>
            </g>
          </g>
        </g>
        <path class="cls-37" d="M2027.1,2551.1c88.5-116.3,5.7-833-37.1-964.7-36.8-113.3-111.4-173.6-78.8-298.3,19.6-75.1,37.5-150.9,58.9-225.6,6.1-21.1,23.6-42.1,27.7-63,3.3-17.1-12.1-38.2-9.8-49.6-17.6,86.1-139.9,103.5-210.3,105.4-94.9,2.6-188-22.1-281.1-36.4-97.3-15-197-14-294,2.8-48.3,8.4-95.9,20.6-144.6,26.1-91.6,10.4-198.2,.7-290.2-6.7-79-6.4-157.1-21.6-236.3-26.7-47.9-3.1-96.6,2.9-144.2-4.9-14-2.3-47.2-18.9-59.5-9.2-17.9,14.1,6.3,43.6,18.7,52.5,37.7,27.2,74.2,24.9,106.1,64.6,27,33.6,37.4,77.3,30.1,119.6-9.5,55.1-40.7,96.2-68.3,142.8-24.5,41.3-36.3,82.2-48.8,129.2-26.8,101.1-46.4,204.1-60.2,307.7-29.2,218.7-33.2,441.1-12.6,660.7-61.4,391.4,1471.3,419.2,1734.4,73.6Z"/>
        <path class="cls-7" d="M467.6,1140.3c257.3,187.4,670,279,1443.6,147.8,41.9,18.2,22.8,45.6-7.4,74.7-885.7,90.4-1248.6-21-1419.7-167.2-11.3-15.3-33.9-20-16.5-55.3Z"/>
        <path class="cls-43" d="M1169.7,2531.8l-2.9-82.3c-85.9-.5-171.5-17.8-232.7-42-21.8-8.7-33.7-32.4-28.3-55.3l18.2-77.4c6.7-28.4,36.8-44,64-33.7,60.7,23,135.2,40.2,214.8,37.5,82.6-2.9,143.3-33,141.3-90.5-1.8-51.8-50.5-81-166.4-107.8-165.4-39.1-285.6-106.5-290.6-250.7-4.5-130.3,87.3-233,251.6-265.4l-2.9-82.3c-.9-26.5,19.8-48.7,46.3-49.6l48.4-1.7c26.5-.9,48.7,19.8,49.6,46.3l2.6,73.9c79.5,.4,137.8,12,184.2,26.5,23.8,7.4,37.5,32.3,31.8,56.6l-16.8,71.6c-6.5,27.6-35.2,43.6-62,34.5-42.8-14.5-103.1-29-180.6-26.3-98,3.4-124.6,45-123.4,81.4,1.6,44.8,61.4,73.6,190.3,108.4,184,48.3,262.2,121.3,267,257.1,4.3,124.7-84.2,239.9-262.5,274.2l3.2,92.1c.9,26.5-19.8,48.7-46.3,49.6l-48.4,1.7c-26.5,.9-48.7-19.8-49.6-46.3Z"/>
      </g>
      <g>
        <g>
          <g>
            <path class="cls-23" d="M2130.5,2792.8c-5.7,0-10.4-4.6-10.4-10.4V1517.5c0-5.7,4.6-10.4,10.4-10.4s10.4,4.6,10.4,10.4v1264.9c0,5.7-4.6,10.4-10.4,10.4Z"/>
            <path class="cls-23" d="M1919.2,2792.8c-5.7,0-10.4-4.6-10.4-10.4V1517.5c0-5.7,4.6-10.4,10.4-10.4s10.4,4.6,10.4,10.4v1264.9c0,5.7-4.6,10.4-10.4,10.4Z"/>
            <path class="cls-23" d="M2770.8,2781.9l-646.3-1246.5c-3.6-7-.9-15.6,6.1-19.3,7-3.6,15.6-.9,19.3,6.1l646.3,1246.5c3.6,7,.9,15.6-6.1,19.3-2,1.1-4.3,1.6-6.6,1.6-5.4,0-10.2-3-12.7-7.7Z"/>
            <path class="cls-23" d="M2463.7,2791.4l-552.4-1269.2c-3.1-7.2,.2-15.7,7.4-18.8,7.2-3.1,15.7,.2,18.8,7.4l552.4,1269.2c1.5,3.5,1.6,7.4,.2,10.9-1.4,3.6-4.1,6.3-7.6,7.9-1.8,.8-3.7,1.2-5.7,1.2-5.7,0-10.8-3.4-13.1-8.6Z"/>
            <path class="cls-23" d="M2028.8,1763.8h224.1c4.9,0,8.9-4,8.9-8.9s-4-8.9-8.9-8.9h-224.1c-4.9,0-8.9,4-8.9,8.9s4,8.9,8.9,8.9Z"/>
            <path class="cls-23" d="M2088.7,1902.6h224.1c4.9,0,8.9-4,8.9-8.9s-4-8.9-8.9-8.9h-224.1c-4.9,0-8.9,4-8.9,8.9s4,8.9,8.9,8.9Z"/>
            <path class="cls-23" d="M2167.7,2068.8h238.3c4.9,0,8.9-4,8.9-8.9s-4-8.9-8.9-8.9h-238.3c-4.9,0-8.9,4-8.9,8.9s4,8.9,8.9,8.9Z"/>
            <path class="cls-23" d="M1969.3,1629.1h213.8c4.9,0,8.9-4,8.9-8.9s-4-8.9-8.9-8.9h-213.8c-4.9,0-8.9,4-8.9,8.9s4,8.9,8.9,8.9Z"/>
            <path class="cls-23" d="M2246.3,2260h259c4.9,0,8.9-4,8.9-8.9s-4-8.9-8.9-8.9h-259c-4.9,0-8.9,4-8.9,8.9s4,8.9,8.9,8.9Z"/>
            <path class="cls-23" d="M2307.1,2408.4h277.8c4.9,0,8.9-4,8.9-8.9s-4-8.9-8.9-8.9h-277.8c-4.9,0-8.9,4-8.9,8.9s4,8.9,8.9,8.9Z"/>
          </g>
          <path class="cls-46" d="M1832.7,1112.1s-9.7-10.4-27.6-7.1c-17.9,3.3-33.9,9.5-45,0-11.2-9.5-15.1,3.2-15.1,3.2l33.4,25.4,54.3-21.5Z"/>
          <g>
            <path class="cls-10" d="M2361.8,2228c28.6-24.9,90.1-44.8,90.1-44.8l37,.8c9.4,10.6,13.6,31,15.4,43.8-7,4.2-20,7.8-43.9,9-44.3,2.1-80-4.4-98.5-8.8Z"/>
            <path class="cls-2" d="M2361.8,2228c18.5,4.4,54.2,10.9,98.5,8.8,23.9-1.1,37-4.8,43.9-9,.1,1,.3,2,.4,2.9,.7,5.3-2.6,10.2-7.7,11.8-33.8,10.4-108.1,7-137,5.2-6.2-.4-9.4-7.6-5.5-12.4,2.1-2.5,4.5-4.9,7.3-7.3Z"/>
          </g>
          <path class="cls-39" d="M2485.8,2152.1v29.4c0,5.7-3.9,10.5-9.5,11.7-5.7,1.2-13.3,2-20.7,.2-4.6-1.1-8-5.1-8.5-9.8l-3.7-31.5h42.5Z"/>
          <g>
            <path class="cls-19" d="M2298.8,2001.4c11.5-25.5,8.2-37,30.9-34.5,2.7,.3,5,.8,6.9,1.5,1.4,4.2,1.5,8.9,0,13.3-5.7,16.5-17.7,44.7-39.8,72.5-4.6,5.8-11.7,9.2-19.2,9.3l-25,.4c23.7-19,36.6-41.5,46.2-62.6Z"/>
            <path class="cls-1" d="M2251.1,2026.2c19.2-13.5,26.4-68.8,26.4-68.8l29.6-15.1,22.3,16.2c3.5,2.6,5.9,6.1,7.2,9.9-1.9-.7-4.2-1.2-6.9-1.5-22.7-2.5-19.4,8.9-30.9,34.5-9.5,21.2-22.4,43.7-46.2,62.6l-17.2,.3c-7.7,.1-12.2-8.7-7.5-14.9,5.9-7.7,13.9-16.8,23.1-23.3Z"/>
          </g>
          <path class="cls-34" d="M2289.2,1914.5l17.9,27.8c2.3,3.5,1.5,8.2-1.8,10.7-5.7,4.5-15.7,9.5-27.8,4.3l-28.7-19.7,40.5-23.2Z"/>
          <path class="cls-20" d="M2423.4,1620.9s9.4,26.5,23,119.6c13.6,93.1,22.6,160.8,30.1,197.8,6.8,33.8,17.5,155.4,16.9,208.6,0,7.1-6,12.8-13.1,12.6l-35.2-1.1c-5.4-.2-10-4.1-10.9-9.5-9.3-54.8-73.7-337.4-112.5-418.6,0,0-103.3,29.2-129,40.9,0,0,33.3,13.3,101.5,141.2,0,0-29.5,23.4-50.3,28.3,0,0-149.3-123.8-165-136.8-15.8-13-30.1-35.3,10.1-75.9,40.2-40.7,163.8-104.8,163.8-104.8l170.7-2.3Z"/>
          <path class="cls-28" d="M2327.4,1733.2c.3,0,.5,0,.8-.2l36.8-14.2c15.8-7.5,26.1-23.8,26.2-41.3,0-1-.8-1.8-1.8-1.8-1.2,0-1.8,.8-1.8,1.8,0,16.2-9.6,31.1-24.2,38.1l-36.8,14.2c-.9,.4-1.3,1.5-.8,2.4,.3,.6,.9,1,1.6,1Z"/>
          <path class="cls-47" d="M2089.5,1613.1s-38.8-29.4-56.4-23.8c-17.7,5.5-30.7,22.1-30.7,22.1h39s9.3,17.9,0,17.9h-13.8s36.4,38.2,61.9-16.1Z"/>
          <path class="cls-3" d="M2155.2,1336.2s-45.5,180-107.2,252.3c0,0,16.7,19,41.5,24.5,0,0,94.6-82.9,123.5-140.6,28.8-57.6-57.8-136.3-57.8-136.3Z"/>
          <path class="cls-26" d="M2216,1164.9l45.2,82.7h-71.4s-5.7-37.8-24.5-60.6l50.6-22.1Z"/>
          <g>
            <path class="cls-29" d="M2147.5,1066.4s-22.7,52-24.2,79.4c-1.5,27.3-7.4,45,24.2,50.5,31.6,5.5,58.2-10.2,72.6-37.4,0,0,22.6-41.9,17.5-59.1-5.1-17.2-90.1-33.4-90.1-33.4Z"/>
            <path class="cls-17" d="M2209.3,1139.3h-4s16.5-33.7,2-39.7c-14.5-5.9-71.7-17.6-84.1-37.9-11.9-19.6-1.3-44.9,14.6-52,1-.4,2.2,0,2.7,1l1.3,2.5c.9,1.7,3.4,1.4,4-.4h0c.5-1.8,2.9-2.1,3.8-.6,3.8,6.1,14,16,41.5,21,39,7.2,64.7,23,65.4,49.9,0,1.7,1.9,2.6,3.3,1.8,2.9-1.8,7.5-2.6,13.6,2.6,10.7,9,6.3,32.3-17.1,51.5-1.1,.9-1.1,2.7,.1,3.4,4.3,2.8,10.6,9.4-5.8,18.1-16.8,9-26.7,8-30.5,7-1-.3-1.7-1.2-1.6-2.2l1.5-23.9c0-1.2-.9-2.3-2.1-2.3h-8.5Z"/>
            <path class="cls-15" d="M2208.3,1144.3s8.6-33.2,23.5-23.9c14.9,9.3-7.7,37.2-19.7,38.5l-3.8-14.6Z"/>
          </g>
          <path class="cls-31" d="M1855.8,1129.2s-6.6-27.7-26.6-23.9c-20,3.8-65.4,28.5-77.1,23.9-11.7-4.5-26.7-15.4-34.3-11.6l13.5,16.8s-34.8-20-40.7-7.7l57.8,32.5s84.6-8.5,107.4-30Z"/>
          <path class="cls-41" d="M2271.2,1241.1s-20.2-33.1-152-25c-68.5,4.2-222.7-55.5-257-85.6,0,0-22.4-.1-43,21.4,0,0,142.4,150.3,308.4,169.5,0,0,126,259.7,125.1,301.8,0,0,74.8,50.2,176.2,14.3,0,0,3.1-72.2-36.5-171.9-51.4-129.4-121.2-224.5-121.2-224.5Z"/>
          <path class="cls-32" d="M2211.5,1330.7c.9,0,1.7-.7,1.8-1.6,0-1-.7-1.8-1.6-1.9-.6,0-63.9-5.2-73.8-6.3-1-.1-1.9,.6-2,1.6-.1,1,.6,1.9,1.6,2,9.9,1.1,73.3,6.3,73.9,6.3,0,0,0,0,.1,0Z"/>
        </g>
        <g>
          <circle class="cls-27" cx="1763.1" cy="834.1" r="306" transform="translate(-73.4 1491) rotate(-45)"/>
          <circle class="cls-25" cx="1763.1" cy="834.1" r="295.8" transform="translate(-73.4 1491) rotate(-45)"/>
          <path class="cls-6" d="M1520.4,714.1c-.8,0-1.7-.2-2.5-.6-2.7-1.4-3.8-4.7-2.4-7.4,48.7-94,144.8-151.7,250.6-150.5,16.9,.2,33.8,1.9,50.2,5.1,3,.6,5,3.5,4.4,6.5-.6,3-3.5,5-6.5,4.4-15.8-3.1-32-4.7-48.2-4.9-101.6-1.1-193.8,54.3-240.6,144.5-1,1.9-2.9,3-5,3Z"/>
          <circle class="cls-6" cx="1769.4" cy="840.6" r="250.4" transform="translate(-76.2 1497.4) rotate(-45)"/>
          <path class="cls-38" d="M1742.8,1026.5l.3-27.2c-28.4-1.4-56.4-8.5-76.3-17.4-7.1-3.2-10.6-11.2-8.5-18.7l7.2-25.3c2.6-9.3,12.8-14,21.7-10.2,19.7,8.5,44.1,15.3,70.4,15.6,27.4,.3,47.9-8.7,48.1-27.8,.2-17.2-15.5-27.5-53.4-38.1-54.1-15.4-92.8-39.5-92.2-87.3,.5-43.1,32.4-75.7,87.2-83.9l.3-27.2c0-8.8,7.3-15.8,16-15.7l16,.2c8.8,0,15.8,7.3,15.7,16l-.3,24.5c26.3,1.3,45.3,6,60.5,11.5,7.7,2.8,11.9,11.2,9.7,19.2l-6.6,23.4c-2.6,9-12.3,13.9-21,10.5-13.9-5.4-33.6-11.2-59.3-11.4-32.5-.4-41.9,13-42,25-.2,14.8,19.2,25.2,61.2,38.7,60.1,18.7,84.8,44.1,84.3,89-.5,41.3-31.5,78-90.9,86.6l-.3,30.5c0,8.8-7.3,15.8-16,15.7l-16-.2c-8.8,0-15.8-7.3-15.7-16Z"/>
        </g>
      </g>
    </g>
  </g>
</svg>