<?xml version="1.0" encoding="UTF-8"?>
<svg id="_лой_1" data-name="Слой 1" xmlns="http://www.w3.org/2000/svg" viewBox="0 0 1832.9 1726.6">
  <defs>
    <style>
      .cls-1 {
        fill: #fdffde;
      }

      .cls-2 {
        fill: #ce3932;
      }

      .cls-3 {
        fill: #a523a2;
      }

      .cls-4 {
        fill: #ad2121;
      }

      .cls-5 {
        fill: #1d3f70;
      }

      .cls-6 {
        fill: #10325b;
      }

      .cls-7 {
        fill: #dce6ff;
      }

      .cls-8 {
        fill: #f9f8f3;
      }

      .cls-9 {
        fill: #23659b;
      }

      .cls-10 {
        fill: #f99370;
      }

      .cls-11 {
        fill: #f39200;
      }

      .cls-12 {
        fill: #3a72aa;
      }

      .cls-13 {
        fill: #f4d4be;
      }

      .cls-14 {
        fill: #163356;
      }

      .cls-15 {
        fill: #e57d61;
      }

      .cls-16 {
        fill: #cfddf9;
      }

      .cls-17 {
        fill: #eb5648;
      }

      .cls-18 {
        fill: #7689d6;
      }

      .cls-19 {
        fill: #16537c;
      }

      .cls-20 {
        fill: #d4e8ff;
      }

      .cls-21 {
        fill: #662948;
      }

      .cls-22 {
        fill: #f9b233;
      }

      .cls-23 {
        fill: #143256;
      }

      .cls-24 {
        fill: #fcb4b4;
      }

      .cls-25 {
        fill: #eef7ff;
      }

      .cls-26 {
        fill: #0f2e54;
      }

      .cls-27 {
        fill: #8e4a35;
      }

      .cls-28 {
        fill: #103663;
      }

      .cls-29 {
        fill: #e8c0a6;
      }

      .cls-30 {
        fill: #c16256;
      }
    </style>
  </defs>
  <g id="_" data-name="9">
    <path class="cls-20" d="M323.5,1584.4s-215.8-724.5-60.5-885.9c103.8-107.8,213.8,129.9,345.1,4.1,116.9-112-46.1-394,149-467.8,205-77.6,373,550.5,545.1,463.7,208.8-105.4,416.4,108.5,237,887.2l-1215.6-1.4Z"/>
    <path class="cls-7" d="M154.6,1522.3c-3.6-14.4-7.2-29.3-10.7-44.4l8.5-3.3c3.4,14.9,7,29.8,10.6,44.1l-8.4,3.6Zm1519.3-18.6l-8.8-1.4c1.5-15.3,2.8-30.8,4.1-45.9l8.8,1.3c-1.3,15.2-2.7,30.7-4.1,46Zm-1539.8-70.4c-3.1-14.9-6.1-30-8.9-45l8.6-2.7c2.8,14.9,5.8,29.9,8.9,44.7l-8.6,3Zm1547.5-21.7l-8.8-1.1c1.1-15.4,2.2-30.9,3.1-46l8.8,.9c-.9,15.2-2,30.7-3.1,46.2ZM117.2,1343.1c-2.6-15.1-5-30.4-7.2-45.5l8.7-2.2c2.2,15,4.6,30.2,7.2,45.2l-8.7,2.5Zm1570.2-24l-8.8-.7c.8-15.4,1.4-30.9,2-46.1l8.9,.5c-.5,15.3-1.2,30.9-2,46.3ZM103.6,1251.9c-2-15.3-3.8-30.8-5.4-45.9l8.8-1.6c1.6,15,3.4,30.4,5.4,45.6l-8.7,1.9Zm1587.1-25.5l-8.9-.3c.3-15.4,.6-31,.7-46.2h8.9c-.1,15.4-.4,31-.7,46.5ZM93.7,1159.9c-1.3-15.5-2.5-31-3.4-46.2l8.8-.9c.9,15.1,2.1,30.5,3.4,45.9l-8.8,1.3Zm1588.9-26.1c-.1-15.5-.3-31-.7-46.2l8.9-.3c.3,15.2,.6,30.8,.7,46.4h-8.9ZM88,1067.3c-.6-15.6-1-31.2-1.2-46.4l8.9-.2c.2,15.1,.6,30.6,1.1,46.1l-8.8,.6Zm1592.5-25.8c-.6-15.4-1.4-30.9-2.2-46l8.8-.9c.9,15.2,1.6,30.8,2.2,46.3l-8.8,.6ZM95.8,974.6l-8.9-.2c.2-15.6,.7-31.2,1.4-46.5l8.8,.7c-.7,15.1-1.2,30.6-1.4,46Zm1579.4-25.1c-1.2-15.4-2.5-30.9-4-45.8l8.8-1.4c1.5,15.1,2.8,30.6,4,46.1l-8.8,1.1ZM100,882.7l-8.8-1.1c1.2-15.5,2.7-31.1,4.4-46.2l8.8,1.7c-1.7,14.9-3.1,30.3-4.3,45.7Zm1566.3-24.7c-1.8-15.3-3.9-30.6-6-45.4l8.7-2.1c2.2,14.9,4.2,30.3,6.1,45.8l-8.8,1.8Zm-1047.9-1.6c-12.3-2.5-21.2-9.8-33.6-22.3l5.6-8.9c10.8,11,18.6,17.6,28.9,19.8l-.9,11.4Zm30.7-27.4l-7.9-5.2c4.1-10.3,7.6-24.6,10.7-42.5l8.7,2.5c-3.2,19.1-7,33.9-11.4,45.3Zm-90.3-28c-7.1-10.2-14.6-21.9-23.1-35.9l7-7.1c8.3,13.7,15.8,25.3,22.7,35.3l-6.6,7.7Zm-448.6-9.4l-8.7-2.2c2.3-15.3,4.9-30.6,7.7-45.5l8.6,2.8c-2.8,14.6-5.4,29.8-7.6,44.9Zm1542.9-24.2c-2.6-15.2-5.5-30.2-8.4-44.7l8.6-2.9c3,14.6,5.8,29.8,8.5,45.2l-8.6,2.5Zm-986.6-30l-8.8-1.5c1.4-13.7,2.6-28.7,3.7-45.9l8.8,1c-1.2,17.3-2.4,32.5-3.8,46.4Zm-152.4-9.3c-7.2-12.6-14.7-26-21.1-37.5l7.2-6.8c6.4,11.5,13.9,24.8,21.1,37.4l-7.1,6.8Zm648.7-.9c-6.9,0-13.7-2.7-20.1-7.9l4.7-9.7c9.7,7.9,19.2,8,29.5,1.6l3.8,10.4c-6.1,3.8-12.1,5.7-17.9,5.7Zm-1035.5-24.8l-8.5-3.4c3.5-14.9,7.4-29.8,11.5-44.2l8.3,4c-4,14.2-7.8,28.8-11.3,43.5Zm1082.4-11l-6.5-7.8c6.7-9.4,13.9-21.1,22-35.6l7.2,6.7c-8.3,14.9-15.7,26.9-22.7,36.7Zm-92.2-7.9c-5.7-11.5-11.4-25-17.4-41.3l8-4.9c5.8,15.9,11.3,28.9,16.8,40l-7.4,6.3Zm517.5-5.1c-3.6-14.9-7.4-29.6-11.3-43.6l8.3-3.9c4,14.2,7.8,29,11.5,44.1l-8.5,3.4Zm-1162.9-25.3c-8.1-14.4-14.9-26.2-21.3-37.1l7.1-6.9c6.4,11,13.2,22.9,21.3,37.3l-7.2,6.8Zm201-8.5l-8.8-.7c.7-13.5,1.4-28.6,2.1-46.3l8.8,.6c-.7,17.7-1.4,32.9-2.1,46.4Zm-521.1-28.3l-8.1-4.6c4.9-14.3,10-28.3,15.6-42.1l7.9,5.3c-5.4,13.5-10.5,27.3-15.3,41.4Zm1100.8,0l-7.4-6.3c6.3-12.4,12.8-25.6,19.4-38.9l7.5,6.2c-6.6,13.3-13.1,26.5-19.4,39Zm-166.8-17c-4-13.1-8.2-27.3-12.7-43.6l8.3-3.9c4.5,16.1,8.6,30.3,12.6,43.2l-8.2,4.3Zm524.7-7.2c-4.8-14.4-9.8-28.4-15-41.6l7.9-5.2c5.3,13.4,10.4,27.6,15.2,42.2l-8.1,4.5Zm-1181.7-12.5c-8-12.9-15.5-24.5-22.9-35.2l6.6-7.6c7.4,10.9,15,22.6,23.2,35.6l-6.9,7.2Zm248.1-27.8l-8.8-.6c.6-15.4,1.2-30.7,1.8-46.4l8.8,.6c-.6,15.6-1.2,31-1.8,46.3Zm614.6-13.3l-7.4-6.3c7.4-14.5,14-27.1,20.2-38.4l7.2,6.7c-6.2,11.2-12.7,23.7-20.1,38.1Zm-1106.8-3.2l-7.5-6.2c7-14.1,14.1-26.9,21.3-38l6.8,7.4c-6.9,10.7-13.9,23-20.6,36.7Zm876.5-23.4c-4.1-15.4-8.1-30.9-11.4-44l8.4-3.6c3.4,13.1,7.3,28.5,11.4,43.9l-8.4,3.7Zm-679.7-.8c-9.1-11.4-18-21.5-26.5-30l5.4-9.1c8.8,8.8,17.9,19.2,27.2,30.9l-6.2,8.2Zm1196.8-.5c-6.3-13.4-13-26.2-19.8-37.8l7.1-6.9c7,11.9,13.8,25,20.3,38.7l-7.6,6ZM230.2,467.3l-5.4-9.1c10.6-10.5,21.6-18,32.7-22.4l2.6,11c-10.1,4-20.2,10.9-29.9,20.6Zm1102.7-3.5l-6.9-7.2c8.3-13.3,16.2-24.7,24.1-35l6.3,8.1c-7.7,10-15.3,21.1-23.5,34.1Zm-652.3-4.5l-8.8-.7c.8-16.7,1.5-31.9,2.3-46.4l8.8,.8c-.8,14.5-1.6,29.6-2.3,46.3Zm-354.9-2.4c-11.1-7.1-21.9-11.7-32.3-13.5l1.2-11.4c11.3,2,23.1,6.9,35.1,14.6l-3.9,10.3Zm1210-18.6c-8.5-11.3-17.4-21.3-26.3-29.7l5.2-9.3c9.3,8.8,18.5,19.2,27.4,31l-6.3,8Zm-497.2-14.3c-4.4-17.1-8-31-11.4-43.9l8.4-3.7c3.4,12.9,7,26.8,11.5,44l-8.4,3.6Zm344.3-23.6l-5.1-9.4c10.9-9.9,21.9-17.2,32.7-21.8l2.7,10.9c-10,4.2-20.2,11-30.4,20.3Zm96.7-14.1c-11-6-22.1-9.7-33-11l.8-11.4c11.8,1.4,23.8,5.4,35.6,11.9l-3.4,10.6Zm-793.8-19.4l-8.8-1c1.1-16.1,2.3-31.7,3.6-46.3l8.8,1.3c-1.3,14.5-2.5,30-3.5,46Zm329.5-30.5c-4.3-15.5-8.3-29.7-12.3-43.3l8.3-4.1c4,13.7,8.1,28,12.4,43.6l-8.3,3.9Zm-321.5-61.4l-8.8-1.6c1.8-16.1,3.8-31.6,5.9-46l8.7,2.1c-2.1,14.3-4,29.6-5.8,45.5Zm296-24.9c-4.8-14.9-9.6-29.1-14.3-42.3l8-4.8c4.8,13.3,9.6,27.7,14.4,42.7l-8.2,4.4Zm-282.6-65.6l-8.6-2.8c3.1-16.1,6.5-31.2,10.1-44.9l8.4,3.7c-3.5,13.5-6.9,28.3-9.9,44Zm252.6-17.9c-5.8-14.2-11.8-27.6-17.7-39.7l7.5-6.1c6,12.4,12.1,26,18,40.5l-7.8,5.4Zm-229.4-68.2l-7.9-5.1c5.8-15.3,12.3-28.8,19.2-40.2l7,7.1c-6.5,10.7-12.6,23.6-18.2,38.2Zm191.4-8.8c-7.7-12.6-15.7-23.7-23.8-33.2l5.9-8.5c8.4,9.8,16.7,21.4,24.7,34.5l-6.9,7.2Zm-148.5-59.2l-4.8-9.7c10.5-8.7,22.1-14.4,34.4-16.8l1.3,11.4c-11.1,2.2-21.5,7.3-30.9,15.2Zm96.8,0c-10.3-7.2-21.1-12.2-32-14.7l1.6-11.3c11.8,2.7,23.5,8.1,34.6,15.9l-4.2,10.1Z"/>
    <path class="cls-25" d="M1730.1,1347.5c-73.5-14.1-61.5,113.6-166.3,113.6s-126.5-486.5-196.2-347.4c-357.4,712.9-149.9-303.2-434.1-316.1-128.5-5.8-214.2,172-245.8,486.8-45.8,284.6-152-217.1-261.2-170.4-69.4,29.6-61.5,347.1-157.3,347.1s-92.8-127.7-166.3-113.6C23.6,1362.7,0,1588.8,0,1588.8H1832.9s-23.6-226.1-102.8-241.3Z"/>
    <path class="cls-7" d="M1665,1485.7c-67.6-6-56.6,48.5-153,48.5s-85.7-122.3-144.7-148.2c-108.6-47.8-198.2,194.3-240.3,72.8-80-322.5-313.3-484.2-420.9,0-42.1,121.5-140.6-95.3-240.3-72.8-61.4,13.9-56.6,148.2-144.7,148.2s-85.4-54.5-153-48.5c-72.8,6.5-94.6,103.1-94.6,103.1H1759.6s-21.8-96.6-94.6-103.1Z"/>
    <path class="cls-16" d="M1.4,1588.8s-12.9,32,40.4,40c72.9,10.9,500.6,39.7,396.7,61.6-58.7,12.3,29.9,29.1,315.7,35.3,285.7,6.2,776-18,611.1-53.8-164.9-35.8,506.8-8.6,465.9-83H1.4Z"/>
  </g>
  <g id="_-2" data-name="8">
    <path class="cls-17" d="M1452.7,1027.1c-9.8,29.2-59.6,49.1-80.9,56.4-12.7,146.2-66.8,258.8-162.5,289.1-30.1,9.5-63.6,14.9-98.9,16l15.5,124.9,13,105h-480l24-423.2c-53.9-61.8-97-138.8-121.5-231.6-42.1-159.4-7.8-299.8,62.1-400.8h0c1.8-2.6,31.5-8.9,75.7-15.5,61.4-9,150.8-18.4,232.4-18.4,137.1,0,308,27.1,313.1,33.9,53.7,70,91.9,158.9,111.2,259.7,1.7,8.9,3.3,17.7,4.7,26.6,15.7,25.9,64.3,106,89,150.5,5.5,9.8,6,19,3.2,27.4Z"/>
    <path class="cls-2" d="M1125.8,1513.5s-175.8-73.7-260.4-211.8c1.8,1.3,120.6,86.8,244.9,86.8l15.5,124.9Z"/>
    <path class="cls-2" d="M1452.7,1027.1c-9.8,29.2-59.6,49.1-80.9,56.4-27.1,1.7-28.3-16.2-28.3-16.2,61.6-7.1,108.9-41.6,108.9-41.6l.4,1.5Z"/>
    <path class="cls-2" d="M892.6,1618.4l-.4,.2h-233.3l24-423.2c-53.9-61.8-97-138.8-121.5-231.6-42.1-159.4-7.8-299.8,62.1-400.8h0c1.8-2.6,31.5-8.9,75.7-15.5l177.5,76.7s-37.5,114.1-40.3,242.7c0,0-53-73.6-113.9-17.4-52.1,48.1-31.4,243.7,113.9,236.5,0,0-47.3,55.3-53,155.9-5.6,100.6,51.8,282.4,109.2,376.6Z"/>
    <path class="cls-4" d="M1244.6,562.9c4,34.2-139.1,62.3-310.6,62.3s-310.6-27.9-310.6-62.3h0c8.9-20.6,170.2-42.1,310.6-42.1s308.1,20.2,310.6,42.1Z"/>
    <path class="cls-2" d="M1149,911.1c-8.2-.6-76.2-1.3-69.1-22.2,1.6-5.5,7.4-8.7,12.9-7.1,111,31.9,135.8-32.3,156.2-18,10.4,14-10.8,24.9-43.2,38.1-14,4.8-33.2,9.1-56.9,9.1Z"/>
  </g>
  <path id="_-3" data-name="7" class="cls-24" d="M1059.8,158.7v-51.8h-29.7c-2.3-9.2-5.9-18-10.5-26.1l21.2-21.2-36.6-36.6-20.4,20.4c-9.2-5.8-19.3-10.2-30.1-12.9V0h-51.8V30.6c-10,2.5-19.4,6.5-28.1,11.7l-19.2-19.2-36.6,36.6,19.2,19.2c-5.2,8.6-9.1,18.1-11.7,28.1h-29.7v51.8h29.7c2.7,10.8,7.1,20.9,12.9,30.1l-20.4,20.4,36.6,36.6,21.2-21.2c8.1,4.6,16.8,8.2,26.1,10.5v30.6h51.8v-30.6c10-2.5,19.4-6.5,28.1-11.7l22.4,22.4,36.6-36.6-22.4-22.4c5.2-8.6,9.1-18.1,11.7-28.1h29.7Zm-128.9,21.3c-61.8,3.7-67.8-90-6.2-94.4,61.8-3.7,67.8,90,6.2,94.4Z"/>
  <path id="_-4" data-name="6" class="cls-9" d="M904.4,397.9v-22.9h-20.3c-1.4-16.2-5.6-31.6-12.2-45.6l17.5-10.1-11.5-19.9-17.6,10.1c-9.1-13-20.4-24.3-33.4-33.4l10.1-17.6-19.9-11.5-10.1,17.5c-14.1-6.6-29.4-10.8-45.6-12.2v-20.3h-22.9v20.3c-16.2,1.4-31.6,5.6-45.6,12.2l-10.1-17.5-19.9,11.5,10.1,17.6c-13,9.1-24.3,20.4-33.4,33.4l-17.6-10.1-11.5,19.9,17.5,10.1c-6.6,14.1-10.8,29.4-12.2,45.6h-20.3v22.9h20.3c1.4,16.2,5.6,31.6,12.2,45.6l-17.5,10.1,11.5,19.9,17.6-10.1c9.1,13,20.4,24.3,33.4,33.4l-10.1,17.6,19.9,11.5,10.1-17.5c14.1,6.6,29.4,10.8,45.6,12.2v20.3h22.9v-20.3c16.2-1.4,31.6-5.6,45.6-12.2l10.1,17.5,19.9-11.5-10.1-17.6c13-9.1,24.3-20.4,33.4-33.4l17.6,10.1,11.5-19.9-17.5-10.1c6.6-14.1,10.8-29.4,12.2-45.6h20.3Zm-154.4,76c-115-2-115-173,0-175,115,2,115,173,0,175Z"/>
  <path id="_-5" data-name="5" class="cls-18" d="M1282.6,428l-4.4-51.1-39.2,3.3c-2.1-7.9-4.8-15.5-8.2-22.7l32.2-22.4-29.3-42.1-32.3,22.5c-5.7-5.7-11.9-10.9-18.4-15.6l16.7-35.6-46.5-21.8-16.7,35.5c-7.7-2.1-15.7-3.5-23.8-4.2l-3.3-39.2-51.1,4.4,3.3,39.2c-7.9,2.1-15.5,4.8-22.7,8.2l-22.4-32.2-42.1,29.3,22.5,32.3c-5.7,5.7-10.9,11.9-15.6,18.4l-35.6-16.7-21.8,46.5,35.5,16.7c-2.1,7.7-3.5,15.7-4.2,23.8l-39.2,3.3,4.4,51.1,39.2-3.3c2.1,7.9,4.8,15.5,8.2,22.7l-32.2,22.4,29.3,42.1,32.3-22.5c5.7,5.7,11.9,10.9,18.4,15.6l-16.7,35.6,46.5,21.8,16.7-35.5c7.7,2.1,15.7,3.5,23.8,4.2l3.3,39.2,51.1-4.4-3.3-39.2c7.9-2.1,15.5-4.8,22.7-8.2l22.4,32.2,42.1-29.3-22.5-32.3c5.7-5.7,10.9-11.9,15.6-18.4l35.6,16.7,21.8-46.5-35.5-16.7c2.1-7.7,3.5-15.7,4.2-23.8l39.2-3.3Zm-177.1,61.9c-94.9,6.4-106.9-134.5-12.3-144.2,94.9-6.4,106.9,134.5,12.3,144.2Z"/>
  <g id="_-6" data-name="4">
    <path class="cls-10" d="M1554.4,1204.3c-.2-1.5-.3-3.1-.4-4.7-.4-9.6,1.1-21.5,1.9-26,.2-1.2,.4-1.9,.4-1.8,0-.3,.2-.6,.2-.8,1-3.2,3.2-5.2,5.8-6.1h0c3.8-1.3,8.3-.2,11,2.6,0,0,.1,.1,.2,.2,1.7,1.9,2.7,4.5,2.3,7.7,0,.1,0,.3,0,.4,0,.2,0,.4-.1,.6-.5-.3-1.8,12.2-1.8,21.3,0,3,.1,5.6,.5,7.3,18.6,5.6-37.4,24-19.9-.7Z"/>
    <path class="cls-10" d="M1535,1213.8c-13.4,17.4-19.5,37.6-33.1,54-.9,.8,.7,.3,1.2,.6-.3,0-.5,0-.8,.1-.4,.1-1.4,0-1,.5,.4,.4,.6,1.7-.2,.6-4.8-18,5.1-38.2,9.8-55.8,0,0,0-4.7,2.1-10.5,2.8-7.5-4.9-9.8-4.9-9.8,0,0-9,6.4-14.9,14.4-18.1,24.8-42.1,79.6,1.9,92.8,37.2,8.4,54.3-40.5,71.9-63.9,14.3-20.9-16.8-43.2-32-23Z"/>
    <path class="cls-5" d="M1465.2,1277.5c.3,11.6,8.3,28.8,30.6,28.8h0c12.8,0,22.2-9.1,29.3-22,13.4-24.3,18.5-62.2,21.9-78.5-15,1.6-35.3,24-41.7,42.4,1.7-7.9,4.2-19.8,5.2-28.3,.3-2.3,.4-4.4,.4-6.1-1.6,0-10.4,.4-16.6-7.5-.2,.3-1.5,1.7-3.4,4.2-7.8,10-25.9,36.4-25.9,67.1Z"/>
    <path class="cls-27" d="M1540.3,1159.4s-1-10.3,1.4-17.8l6.2,2.2-7.6,15.6Z"/>
    <path class="cls-10" d="M1543.5,1189.6c10.2,7.9,30.4,7,36.5-1.4,22.8-31.2-21.9-85.8-36.7-36.3-5.3,14.2-16.6,22.4,.2,37.7Z"/>
    <path class="cls-30" d="M1554.6,1161.1c-.4-.6-.2-1.4,.4-1.8,.6-.4,1.4-.2,1.8,.4,.4,.6,.2,1.4-.4,1.8-.6,.4-1.4,.2-1.8-.4Z"/>
    <path class="cls-30" d="M1543.3,1160.5c-.4-.6-.2-1.4,.4-1.8s1.4-.2,1.8,.4c.4,.6,.2,1.4-.4,1.8-.6,.4-1.4,.2-1.8-.4Z"/>
    <path class="cls-30" d="M1548.1,1171.6c.8,0,1.6-.1,2.2-.4,.3-.1,.4-.4,.3-.7-.1-.3-.4-.4-.7-.3-1.6,.7-4.1,.2-4.5-.6-.1-.3,.2-.6,.5-.8,2.7-1.9,3.9-7.4,4-7.7,0-.3-.1-.5-.4-.6-.3,0-.5,.1-.6,.4,0,0-1.3,5.4-3.6,7.1-1.3,.9-1,1.8-.8,2.1,.5,.9,2,1.4,3.6,1.4Z"/>
    <path class="cls-15" d="M1544.6,1148.2c6.8-4.6,19.9-2.4,26.3-3.2,0,0-.1,11,11.8,17.6,2.1,9.9,4.2,14.1-4.7,27.5h0c.7-.6,1.4-1.2,2-1.8h0c28.1-35.5-18.3-84.3-35.5-40Z"/>
    <path class="cls-27" d="M1536.6,1127.4c3.2-8.6,14.8-14.4,26.5-5.5,9,6.8,17.7,5.7,18.4,13.9,17.1,5.5,11.1,24.3,11.1,24.3h-8.2c-10.1-6.5-11.1-17.6-11.1-17.6h0c-2.1,.3-4.3,.5-6.2,.2-6.2-.8-15.1-.6-21.6,2.7-6.5,3.3-12.4-8.4-8.8-18Z"/>
    <path class="cls-27" d="M1534.6,1177.8c0,1,.2,2.1,.4,3.3,1.6,8.5,8,19.2,19,18.8,.8,0,1.7-.1,2.6-.3,4.9-.4,11.4-1.6,17.2-4.1,8.3-3.7,15.2-10.2,13.7-21.8h0s0,0,0,0l-1.2-5h0v-.6h-.1l-1.9-8-6-5.4h0c0,1.1,.8,3.4,1.3,6.2,1.2,5.6,1.8,13.4-4.5,18,0,0-.1,0-.2,0-5.3,3.4-12.1-.5-19.4-3.7-6.8-2.9-14-5.2-20.9-.3,0,.2,0,.4,0,.6h0c0,.7-.1,1.5,0,2.4Zm26.2,6.6c-1.9,.3-4.1,.6-6.3,.7-6.1,.3-12.5-.6-15.2-5.4,1-8.4,9.9-5.6,16-1.3,2.9,2,5.1,4.3,5.6,6Z"/>
    <path class="cls-10" d="M1594.5,1166.4c-.4,4.3-3.5,7.5-7,7.2-3.4-.3-5.9-4.1-5.5-8.3,.4-4.3,3.5-7.5,7-7.2,3.4,.3,5.9,4.1,5.5,8.3Z"/>
    <path class="cls-30" d="M1585.8,1161.8c.1,0,3.1-1.6,5-.2,.5,.4,.8,.9,1.1,1.5h0c.5,1.3,.5,3,0,5.3,0,.2-.3,.4-.5,.4,0,0,0,0,0,0-.3,0-.5-.3-.4-.6,.3-1.8,.4-3.2,.1-4.2-2.8,.8-3.9,4.3-3.9,4.3,0,.2-.3,.4-.5,.4,0,0,0,0-.1,0-.3,0-.4-.4-.3-.6,0-.2,1.2-3.9,4.5-5-.2-.3-.3-.5-.6-.7-1.4-1-3.9,.3-3.9,.3-.2,.1-.5,0-.7-.2-.1-.2,0-.5,.2-.7Z"/>
    <path class="cls-29" d="M1608.4,1303.3h3.3c0-.6-.1-.9-.1-.9-.1,0-.3,0-.4,.1-.8,.2-1.6,.5-2.4,.7-.1,0-.2,0-.4,0Z"/>
    <path class="cls-30" d="M1548.1,1179.3c0,0,.1,0,.2,0,.2,0,.3-.4,.2-.6,0-.1-1.2-2.8-5-3.1-.2,0-.5,.2-.5,.4,0,.2,.2,.5,.4,.5,3.2,.3,4.2,2.5,4.2,2.6,0,.2,.2,.3,.4,.3Z"/>
    <path class="cls-10" d="M1494.5,1206.3l16.6,7.5c.1,0-.2-7.5,4.4-8.8,5.1-1.4,10.1-7.4,10-7.7,1.6,4.1,9.3-3.7,6.7-5.1,1.8-1.6,.6-3.5-1.6-4.6,1.5-1.4-.1-3.1-2.2-3.8,2.6-1.4,4.7-2,7.5-2.9,3.9-1.2,1.3-3.5-1-3.1-19,3.3-27.2,10.9-40.3,28.5Z"/>
    <path class="cls-30" d="M1543.1,1155.9s0,0,.1,0c4.5-1,6-4.5,6.1-4.7,0-.2,0-.5-.2-.6-.2,0-.5,0-.6,.2,0,0-1.5,3.3-5.4,4.2-.2,0-.4,.3-.3,.5,0,.2,.2,.3,.4,.3Z"/>
    <path class="cls-30" d="M1559.9,1157.3c0,0,.2,0,.2,0,.2-.1,.3-.4,.1-.6,0-.1-2.1-3.3-6.7-3.8-.2,0-.5,.1-.5,.4,0,.2,.1,.5,.4,.5,4.2,.5,6.1,3.4,6.1,3.4,0,.1,.2,.2,.4,.2Z"/>
    <path class="cls-14" d="M1495.9,1306.3c12.8,0,22.2-9.1,29.3-22l-2.1-40.1s-12.3,25.3-19.4,48c-1.9,6.1-4.7,10.7-7.8,14.1Z"/>
    <path class="cls-10" d="M1591.4,1630.2l.8-.4c0,.6,.7,2.5,1.3,2.5l23.7,.5c.6,0,.9-1.1,.9-1.6l2-.6c0-3.5-.3-4.8-1.9-7.6-5.8-7.6,1.1-41.9,.9-50.8,1.4-2.4-24.9-.5-25.3-1.1-.6,0-1.1,.5-1,1.1l3.1,39.1c1.1,9.2-4.5,11.7-4.5,18.9Z"/>
    <path class="cls-10" d="M1488.8,1633.6h47.2c4.1-.2,4.1-4.4,3.3-7.6-2.6-11.7,2-38.7,2.8-50.7,.2-2.2-1.5-4.1-3.7-4.1h-20.8c-2.3,0-4,2-3.7,4.2l3.8,30.2c1.5,14-13,15.1-22.5,17.1-3.7,.9-7.6,2.4-9.4,5.2-1.7,2.5,0,5.9,3.1,5.9Z"/>
    <path class="cls-28" d="M1541.1,1628.7c-.1,2.3-1.3,4.9-4,4.9h-48.9c-12.2-3.7,5.7-20.8,27.7-19.5,1.7,.4,9.9,1.8,19.6,.5,5.5-.6,5.7,9.4,5.5,14.2Z"/>
    <path class="cls-28" d="M1616.3,1633.6h-20.9c-10.1-1.1-3-19.4,10.4-19.5,13.5-.1,20.5,18.4,10.5,19.5Z"/>
    <path class="cls-29" d="M1499.9,1627c-.4,0-.8-.2-1-.6-1.9-4.7-5.4-6.1-5.4-6.1-1.3-.5-.5-2.4,.8-1.9,.2,0,4.3,1.8,6.6,7.3,.3,.7-.2,1.4-1,1.4Z"/>
    <path class="cls-29" d="M1507.9,1626c-.4,0-.9-.3-1-.7-1.7-5.4-6.3-7.9-6.4-7.9-1.2-.6-.2-2.5,1-1.8,.2,.1,5.5,2.9,7.4,9.1,.2,.7-.3,1.4-1,1.3Z"/>
    <path class="cls-29" d="M1517.1,1624.9c-.4,0-.8-.3-1-.7-1.9-5.6-6.4-8.6-6.5-8.6-1.1-.7,0-2.5,1.1-1.7,.2,.1,5.1,3.4,7.3,9.7,.2,.7-.3,1.4-1,1.4Z"/>
    <path class="cls-29" d="M1613.3,1620.3c-8-4.5-15,1.4-16.1-.6-.9-2.1,9.5-5.3,16.6-1.3,.9,.5,.5,2-.5,1.9Z"/>
    <path class="cls-26" d="M1484.8,1628.7h56.3c-.2,1.7-.7,3.4-1.5,4.9h-51.3c-2.5,0-4.3-2.5-3.4-4.9Z"/>
    <path class="cls-26" d="M1616.3,1633.6h-20.9c-2.7,0-4.8-2.2-4.6-4.9h30.2c.2,2.7-2,4.9-4.6,4.9Z"/>
    <path class="cls-12" d="M1622.4,1606.9s-22.3,5.4-33.8-.4c-6-37.5-22.6-141.9-28.4-213.4-.2,4.2-12.4,172.4-14.7,213.4-7.9,2.7-23.9,5.9-32.8-.6-4-43.2-16.9-185.4,2.5-301.5,0,0,53.1,5.9,94.6-6.6,11.4,36.8,14.4,264.9,12.5,309.1Z"/>
    <path class="cls-9" d="M1521.4,1602.4c-10.8-124.8,2-230.9,5.2-232.1,2.3,.5-11,108.5-5.2,232.1Z"/>
    <path class="cls-9" d="M1604.9,1602.4c-7.4-127.9-26.2-247.1-24-248.8,2.9-.2,21.9,121.7,24,248.8Z"/>
    <path class="cls-5" d="M1617.7,1348c-1.9,2.3-3.9,4.6-6.1,6.9,0,0-10.4,2-18.6-8.9,33.3-72-30.9-76-18.2-140.1,43,5.1,102.8,69.3,42.8,142.1Z"/>
    <path class="cls-14" d="M1617.7,1348c-1.9,2.3-3.9,4.6-6.1,6.9,0,0-10.4,2-18.6-8.9,1-3.5,2.4-5.5,3.5-8.4,0,0,6.2,7.3,21.2,10.4Z"/>
    <path class="cls-9" d="M1612.3,1356.3c-18,1.1-26.8-17.9-19.6-13.4,.2,.5,4.6,11.4,21.1,10.7,2.6,.5,1.5,3.3-1.6,2.8Z"/>
    <path class="cls-13" d="M1507.6,1354.4s3.2,13.9,29.2,20.8c7.4,2,11.7,1,12.8-4.2,.5-2.6,2-7.1,4.6-8.8,0,0,5.8,2.5,8,6.1,4.8,7.8,12,.7,15.6-7.5,4.4-10.1,15.4-18.7,17.8-27.1l-88,20.7Z"/>
    <path class="cls-5" d="M1613.4,1337.2c-.8,1.5-1.4,1.3-2.2,.4-23.3-17.4-31.7,20.6-56.8,21.3-25.6,2.5-39.8,4-46.8-4.5-12.2-18.9,7.2-103.2,22.8-123.6,6.9-10.6,17.5-21,24-26.5-.1,.6-2.5,15.1,19.9,.7,1.1,.5,8.7,8.3,8.3,12,1.1,17.1,41.6,101,30.8,120.1Z"/>
    <path class="cls-14" d="M1599.9,1342.5l-5.1-1.1c20.5-46-3.6-65.5-16.3-91.4,29.5,34.1,34,52.9,21.4,92.5Z"/>
    <path class="cls-13" d="M1581.7,1207.1c.1,8.6-21.9,16.1-23.1,16.1l-2.6-7.8c-3.4,.8-6.4,5.6-6.4,5.6-9.1-8.9-4.7-14.2-2.5-15.3,2.6-1.3,7.2-1.4,7.2-1.4-.1,.6-.5,13.8,19.9,.7,2.6-1.2,7.4,2.1,7.4,2.1Z"/>
    <path class="cls-9" d="M1545.6,1606.5s-2.9,1.1-6.9,1.8c0,0,11.2-166.9,12.9-189.2,1.7-22.3,8.7-26,8.7-26,0,0-14.9,209.8-14.7,213.4Z"/>
    <path class="cls-9" d="M1546,1598.4c-.3,4.8-.5,7.7-.4,8.1-7.9,2.7-23.9,5.9-32.8-.6,0,0-.3-2.6-.7-7.5,0,0,15.6,7.2,34,0Z"/>
    <path class="cls-9" d="M1622.4,1606.9s-22.3,5.4-33.8-.4c0,0-.5-2.9-1.3-8.1,0,0,15.7,4.4,35.4,0,0,5.1-.3,8.1-.3,8.5Z"/>
    <path class="cls-14" d="M1491.1,1210.4c0,.1,.2,.2,.3,.4,7.3,9.4,19.3,9,19.3,9,.3-2.3,.4-4.4,.4-6.1-1.6,0-10.4,.4-16.6-7.5-.2,.3-1.5,1.7-3.4,4.2Z"/>
  </g>
  <g id="_-7" data-name="3">
    <path class="cls-10" d="M417.9,1119.8s9.2,15.6-5.2,28.8l-14.1-5.4,19.3-23.4Z"/>
    <path class="cls-19" d="M504.9,987.4l23.4-.5-.6-26.5h-23.5c-2.1-18.5-7.3-35.9-15.2-51.8l20-12.2-13.8-22.7h-24.8l-2,3.6c-9.5-11.2-20.5-21-32.7-29.1l11.2-20.6-23.3-12.7h-24.8l1.1,15.7c-12.9-4.4-26.5-7.1-40.6-8l-.5-23.4h-24.8l-.2,.6h-1.5v5.3l-4.9,18.9c-16.7,2.4-32.4,7.4-46.9,14.6l-12.2-20h-24.8l-1.4,47c-8.3,7.9-15.6,16.7-22,26.3l-20.6-11.2h-24.8l12.8,21.9-.7,1.3,2.2,1.2,5.8,58.3c-.1,1.6-.3,3.1-.4,4.7l-23.4,.5,.6,26.5,23.4-.5c.7,6.9,1.9,13.6,3.5,20.2l-19.3,67h24.8l20-12.2c5.5,7.5,11.7,14.5,18.4,20.9l8.2,50h24.8l11.2-20.5c10.1,4.5,20.8,7.9,31.9,10.1l-3.1,26.2h24.8l26.5-.6-.5-23.4c13.5-1.5,26.5-4.6,38.7-9.3l1,14h24.8l22.7-13.8-12.2-20c11.6-8.5,21.9-18.5,30.7-29.8l2.7,1.6h24.8l12.7-23.3-20.5-11.2c7.2-16.4,11.7-34.3,12.9-53Zm-155.2,91.4c-55.8,0-101.1-45.3-101.1-101.1s45.3-101.1,101.1-101.1,101.1,45.3,101.1,101.1-45.3,101.1-101.1,101.1Z"/>
    <path class="cls-10" d="M235,1258.4c-51.1-37.3-49.9-104.5-19.8-154.8,6.5-9.7,19.6-.5,13.8,9.4-14,37.9-13.2,90.1,27.3,110.8,0,0,0,0,0,0,22.6,14,1.5,48.5-21.2,34.7Z"/>
    <path class="cls-5" d="M240.6,1273.3c-3.6-.4-7.4-1.4-11.6-3.4,0,0-11.6-4.1-22.8-17.4-10.9-13-21.4-34.8-20.6-70.1,.7-29.5,14.6-56.8,24-70.4,1.3-2,2.6-3.6,3.7-5,0,0,7.8,6.9,16.2,5,0,0-.6,2.1-1.4,5.7-2.8,12.3-8.5,41.6-4.2,57.4,5.5,20.4,25.7,37.7,39.5,40.6,0,0,8,12.8,8.5,25.4,.5,10.9-10,34.3-31.3,32.2Z"/>
    <path class="cls-13" d="M229.5,1111.9s-.6,2.1-1.4,5.7c-13.2,.6-18.5-5.7-18.5-5.7,1.3-2,2.6-3.6,3.7-5,0,0,7.8,6.9,16.2,5Z"/>
    <path class="cls-6" d="M240.6,1273.3c-3.6-.4-7.4-1.4-11.6-3.4,0,0-11.6-4.1-22.8-17.4h0s12.4,9.3,22.5,4.3c7.7-3.8,10.8,9.7,11.9,16.5Z"/>
    <path class="cls-10" d="M356.2,1635.8l-46,3.6c-2.1,.2-3.9-1.5-3.9-3.6,0-1,0-2.2,.1-3.6,.4-3.9,.3-7.8,0-11.7-.2-1.9-.4-3.7-.8-5.5l-5.8-32c-.4-2.1,1.2-4.1,3.3-4.3l20.3-1.6c2.2-.2,4,1.6,3.9,3.8l-1.4,29.7c-.3,6.5,4.3,12.2,10.7,13.2,4.6,.8,9.2,1.1,12.5,1.7,.4,0,.9,.2,1.3,.2h0c3.5,.7,6.5,1.8,8.3,4.1,1.8,2.3,.4,5.7-2.6,5.9Z"/>
    <path class="cls-17" d="M304.9,1635c.3,2.2,1.6,4.7,4.2,4.5l47.7-3.7c2.5-.2,4-2.8,3-5-2.3-5.1-9.4-12.3-32.1-11.8-3.2,.6-10.5,2.2-21.3,1.6,0,0-3.2,6-1.5,14.5Z"/>
    <path class="cls-29" d="M344.9,1630.2c-.1,0-.3,0-.4,0-.5-.2-.8-.7-.7-1.3,1.8-5.5,5.7-7.5,5.9-7.6,.5-.2,1.1,0,1.4,.5,.2,.5,0,1.1-.5,1.4h0c-.1,0-3.3,1.7-4.8,6.4-.1,.4-.5,.7-.9,.7Z"/>
    <path class="cls-29" d="M337,1629.9c0,0-.2,0-.3,0-.5-.1-.9-.7-.8-1.2,1.4-6.2,6.3-9.3,6.5-9.4,.5-.3,1.1-.2,1.4,.3,.3,.5,.2,1.1-.3,1.4,0,0-4.4,2.8-5.6,8.2-.1,.4-.5,.8-.9,.8Z"/>
    <path class="cls-29" d="M327.9,1629.5c-.1,0-.2,0-.3,0-.5-.1-.9-.7-.7-1.2,1.7-6.3,6.2-9.8,6.4-10,.4-.3,1.1-.3,1.4,.2,.3,.4,.3,1.1-.2,1.4,0,0-4.2,3.3-5.7,8.9-.1,.4-.5,.7-.9,.8Z"/>
    <path class="cls-2" d="M359.8,1630.8l-54.9,4.2c.3,1.7,.9,3.2,1.9,4.6l50-3.9c2.4-.2,4-2.7,3-4.9h0Z"/>
    <path class="cls-17" d="M337.2,1598.4c-1.9,6.1-3.1,9.6-3.1,9.6,0,0-19.9,8.1-38.3,.9,0,0,0-1.3,.2-3.7,0-.3,0-.6,0-.9,0-.9,.1-2,.2-3.2,1.6-25.8,4.9-101.7,3.5-120.8-1.9-24.5-11.5-45.3-21.8-60-3.6-5.1-7.3-9.4-10.8-12.9-20.6-20.4-42.3-19.7-34.6-55.5,1.1-5.3,47.7-3,47.7-3l52.5,8.5s23.1,56.5,27.4,109.8c3.4,42.7-15.7,107.9-22.9,131.2Z"/>
    <path class="cls-2" d="M303.8,1605.2h-7.8c0-.3,0-.6,0-.9,0-.9,.1-2,.2-3.2,1.6-25.8,4.9-101.7,3.5-120.8-1.9-24.5-11.5-45.3-21.8-60l1.2-14.1s20.1,28.5,25.3,54.5c5.2,26-.5,144.5-.5,144.5Z"/>
    <path class="cls-2" d="M337.2,1598.4c-1.9,6.1-3.1,9.6-3.1,9.6,0,0-19.9,8.1-38.3,.9,0,0,.2-2.9,.5-7.9h0s21.3,6.2,40.9-2.6Z"/>
    <path class="cls-10" d="M108.1,1580.6l-19.4-41.8c-.9-1.9,0-4.2,2-4.9,.9-.4,2.1-.8,3.4-1.1,3.8-1,7.4-2.4,10.9-4.1,1.7-.8,17.9-10.2,19.5-11.1,0,0,14.3,19,12.2,19.6l-22.4,11.6c-3.7,4.8-3,3-1.8,9.4,.9,4.6,2.2,9,2.8,12.3,0,.4,.2,.9,.2,1.3h0c.6,3.6,.6,6.7-.9,9.2-1.5,2.5-5.2,2.3-6.5-.3Z"/>
    <path class="cls-17" d="M90.9,1532.2c-2,1.1-3.9,3.2-2.7,5.5l20.1,43.4c1,2.2,4,2.8,5.7,1,4-3.9,8.2-13.1-.1-34.2-1.7-2.8-5.8-9.1-9-19.4,0,0-6.8-.9-14.1,3.6Z"/>
    <path class="cls-29" d="M109.4,1568.1c0-.1,0-.2,0-.4,0-.6,.4-1,1-1.1,5.8-.3,9,2.7,9.1,2.8,.4,.4,.4,1,0,1.4-.4,.4-1,.4-1.4,0h0c-.1-.1-2.8-2.5-7.6-2.3-.4,0-.8-.2-1-.6Z"/>
    <path class="cls-29" d="M106.9,1560.5c0,0,0-.2,0-.3,0-.6,.3-1.1,.9-1.1,6.3-.8,10.9,2.7,11.1,2.8,.4,.3,.5,1,.2,1.4-.3,.4-1,.5-1.4,.2,0,0-4.2-3.2-9.6-2.4-.5,0-.9-.2-1.1-.6Z"/>
    <path class="cls-29" d="M104.2,1551.9c0-.1,0-.2,0-.3,0-.6,.4-1.1,.9-1.1,6.4-.6,11.4,2.4,11.6,2.5,.5,.3,.6,.9,.3,1.4-.3,.5-.9,.6-1.4,.3,0,0-4.6-2.8-10.3-2.2-.4,0-.8-.2-1-.6Z"/>
    <path class="cls-2" d="M114.1,1582.2l-23.1-49.9c-1.4,.9-2.7,2-3.7,3.4l21.1,45.5c1,2.2,3.9,2.8,5.7,1.1h0Z"/>
    <path class="cls-17" d="M297.1,1360.6c-14.8,56.2-26.6,100-69.4,143.2-28.2,28.5-72.1,41.8-90.8,44.6-6.3,1-10.1,1.2-10.1,1.2,0,0-19-16-12.2-39.9,0,0,3.2-.9,8.2-2.5,15.7-5.1,48.1-18.3,59.2-32.8,34.7-45.2,17.9-77.5,35.4-117l79.8,3.2Z"/>
    <path class="cls-2" d="M136.8,1548.5c-6.3,1-10.1,1.2-10.1,1.2,0,0-19-16-12.2-39.9,0,0,3.2-.9,8.2-2.5,0,0-2.5,26.1,14.1,41.3Z"/>
    <path class="cls-10" d="M294.2,1265.6c69.4-10.3,104.6-50.5,118.5-117,1.8-9.4-11.1-17-14.2-8-.4,1.1-1.3,3.2-1.8,4.3-21.4,46.9-50.1,76.6-104.4,74.2,0,0,0,0,0,0-30.5,1.3-28.7,47.6,1.8,46.6Z"/>
    <path class="cls-5" d="M286.5,1217.7l29.9,50.5c10.9-1.6,24.1-4.6,42.8-18.2,0,0,0,0,0,0,1.2-.9,2.4-1.8,3.5-2.8,29.9-23.2,46.1-74.5,49-94.7-10.6,.2-15.8-6-15.8-6-.8,1.6-1.7,3.1-2.7,4.7h0c-25.1,44.2-66.3,70.9-106.8,66.5Z"/>
    <path class="cls-13" d="M393.3,1151.2h0c5.7,6.4,17.3,7.1,17.3,7.1,.8-3.7,1.1-5.8,1.1-5.8-10.6,.2-15.8-6-15.8-6-.8,1.6-1.7,3.1-2.7,4.7Z"/>
    <path class="cls-6" d="M318.5,1243.8l2,23.7c7.1-1.3,22.7-5.4,38.8-17.6-9.3,6.3-23.3,9.2-29,6.5-6.5-3.1-11.8-12.6-11.8-12.6Z"/>
    <path class="cls-10" d="M286.5,1217.7c1.2-10.1-.4-24.6-1.8-30.6-2.5-11.8-21.2-7.2-18.1,4.4,.6-.4,2.5,21,1.2,26.9-17.6,5.3,35.2,22.6,18.8-.7Z"/>
    <path class="cls-15" d="M266.4,1190.5c0,.1,0,.3,0,.4,0,.2,0,.4,.1,.6,.4-.3,1.7,11.5,1.7,20,8,3.7,17,2,18.7,1.7,.4-9-1-20.2-1.8-24.4-.2-1-.4-1.6-.4-1.7,0-.3-.1-.5-.2-.8-.9-2.7-2.9-4.7-5.4-5.7h0c-1.7-.7-3.7-.8-5.6-.4-1.9,.5-3.6,1.5-4.8,2.9,0,0-.1,.1-.2,.2-1.6,1.9-2.5,4.5-2.1,7.2Z"/>
    <path class="cls-5" d="M298.1,1168.7s-1.8-9.9-6-16.3l-5.2,3.7,11.2,12.5Z"/>
    <path class="cls-10" d="M303,1197.8c-5.6,8-15.7,11.6-24.4,11.2-2.7,0-5.3-.6-7.7-1.6h0c-.8-.3-1.6-.7-2.4-1.2h0c-36.9-26.8-2.3-86,24.7-43.6,8.7,11.8,21.4,16.8,9.7,35.3Z"/>
    <path class="cls-8" d="M295.9,1187.6l-11.9-3.8s.3,6.1,4.9,7c4.4,.9,7-3.2,7-3.2Z"/>
    <path class="cls-30" d="M285.1,1174.1c.2-.7-.2-1.4-.8-1.6s-1.4,.2-1.6,.8c-.2,.7,.2,1.4,.8,1.6,.7,.2,1.4-.2,1.6-.8Z"/>
    <path class="cls-30" d="M295.5,1170.6c.2-.7-.2-1.4-.8-1.6-.7-.2-1.4,.2-1.6,.8-.2,.7,.2,1.4,.8,1.6,.7,.2,1.4-.2,1.6-.8Z"/>
    <path class="cls-30" d="M296,1188.1c0,0-.2,0-.3,0l-11.9-3.8c-.3,0-.4-.4-.3-.6,0-.3,.4-.4,.6-.3l11.9,3.8c.3,0,.4,.4,.3,.6,0,.2-.2,.3-.3,.3Z"/>
    <path class="cls-30" d="M294,1182.1c-.7,.2-1.5,.3-2.2,.2-.3,0-.4-.3-.4-.6,0-.3,.3-.4,.6-.4,1.7,.3,3.9-.9,4-1.7,0-.3-.3-.5-.7-.6-3-1-5.6-5.9-5.7-6.1-.1-.2,0-.5,.2-.7,.2-.1,.5,0,.7,.2,0,0,2.6,4.7,5.2,5.6,1.4,.5,1.4,1.4,1.3,1.7-.2,.9-1.5,1.8-3,2.2Z"/>
    <path class="cls-15" d="M291.2,1159.6c-7.5-2.5-19.5,2.8-25.6,3.8,0,0,3,10.3-6.4,19.5,.7,9.8-.2,14.3,11.6,24.4h0c-.8-.3-1.6-.7-2.4-1.2h0c-35.5-25.5-4.2-83.9,22.8-46.5Z"/>
    <path class="cls-5" d="M293.1,1137.8c-5.2-7.2-17.7-9.5-26.2,1.8-6.6,8.7-15,10-13.6,17.8-14.5,9.7-3.9,25.6-3.9,25.6l7.7-2.2c7.8-8.7,5.8-19.3,5.8-19.3h0c2-.2,4.1-.7,5.9-1.4,5.5-2.4,14-4.5,20.9-3.2,6.9,1.3,9.4-11.1,3.5-19.1Z"/>
    <path class="cls-10" d="M249.2,1189.6c1.5,3.9,5.3,6.1,8.4,4.9,3.1-1.2,4.5-5.3,3-9.2-1.5-3.9-5.3-6.1-8.4-4.9-3.1,1.2-4.5,5.3-3,9.2Z"/>
    <path class="cls-30" d="M256.1,1183c-.1,0-3.3-.7-4.7,1.1-.4,.5-.6,1-.6,1.7h0c0,0,0,.1,0,.2h0c0,1.3,.4,2.8,1.3,4.8,.1,.2,.3,.3,.6,.3,0,0,0,0,0,0,.2-.1,.3-.4,.2-.7-.8-1.6-1.2-2.9-1.2-3.9,2.9,0,4.8,2.9,4.8,3,.1,.2,.3,.3,.5,.2,0,0,0,0,.1,0,.2-.1,.3-.4,.2-.7,0-.1-2.2-3.4-5.5-3.4,0-.3,.2-.6,.3-.8,1-1.3,3.7-.8,3.7-.8,.3,0,.5-.1,.6-.4,0-.3-.1-.5-.4-.6Z"/>
    <path class="cls-13" d="M332.7,1357.4s-1.3,3.8-10.9,8.7c-9.5,4.9-24.7,8.5-24.7,8.5,0,0-3.2-2.4-5.2-6.3,0,0-1.1,3.8-4.9,6.3,0,0-39,.9-69.8-17.1,0,0-2-1.2,.7-6l114.7,6Z"/>
    <path class="cls-1" d="M261.8,1190.2l-4.4-2.8c0-.2,0-.4-.1-.6-.5-1.1-1.7-1.7-2.9-1.2-1.1,.5-1.7,1.7-1.2,2.9,.4,1.1,1.7,1.6,2.8,1.2l4.4,2.8c.3,.2,.7,.3,1.1,.2,.3,0,.6-.3,.8-.6,.4-.6,.2-1.5-.4-1.9Z"/>
    <path class="cls-5" d="M332.7,1357.4s-60.7,19.1-114.7-6c0,0-4.8-8.2,6.2-46.4,4-14,2-34,3.1-40.9,6.1-38.3,40.7-46.4,40.7-46.4,4.1,9.6,11.6,10.4,15.6,8.5,4.8-2.3,3.2-7.9,3.1-8.4,19.5,6,36.2,22.2,41.7,55.6,3.4,20,7.6,63.7,4.4,84.2Z"/>
    <path class="cls-3" d="M363.7,1246.5c-.2,.2-.5,.4-.9,.7,.3-.2,.6-.5,.9-.7Z"/>
    <path class="cls-3" d="M196.6,1236.6c.2,.2,.3,.4,.5,.7-.2-.2-.3-.5-.5-.7Z"/>
    <path class="cls-10" d="M234,1071.9s-21.2,0-20.7,35l16.8-2,3.9-33Z"/>
    <path class="cls-9" d="M503.5,986.9l-.6-26.5-23.4,.5c-2-18.7-7.3-36.3-15.3-52.4l20-12.2-13.8-22.7-20,12.2c-10.8-14.8-24.2-27.5-39.5-37.7l11.2-20.6-23.3-12.7-11.2,20.5c-16.4-7.2-34.3-11.7-53-12.9l-.5-23.4-26.5,.6,.5,23.4c-18.7,2-36.3,7.3-52.4,15.3l-12.2-20-22.7,13.8,12.2,20c-14.8,10.8-27.5,24.2-37.7,39.5l-20.6-11.2-12.7,23.3,20.5,11.2c-7.2,16.4-11.7,34.3-12.9,53l-23.4,.5,.6,26.5,23.4-.5c2,18.7,7.3,36.3,15.3,52.4l-20,12.2,13.8,22.7,20-12.2c10.8,14.8,24.2,27.5,39.5,37.7l-11.2,20.6,23.3,12.7,11.2-20.5c16.4,7.2,34.3,11.7,53,12.9l.5,23.4,26.5-.6-.5-23.4c18.7-2,36.3-7.3,52.4-15.3l12.2,20,22.7-13.8-12.2-20c14.8-10.8,27.5-24.2,37.7-39.5l20.6,11.2,12.7-23.3-20.5-11.2c7.2-16.4,11.7-34.3,12.9-53l23.4-.5Zm-176.3,91.9c-55.8,1.3-102.1-42.9-103.4-98.7-1.3-55.8,42.9-102.1,98.7-103.4,55.8-1.3,102.1,42.9,103.4,98.7,1.3,55.8-42.9,102.1-98.7,103.4Z"/>
    <path class="cls-10" d="M398.1,1142.1c0-.2,0-.3,0-.4v-.4c0-.2,0-.4,0-.7,0-.4,0-.8,.1-1.3,.1-.8,.3-1.6,.5-2.4,.4-1.6,1-3.1,1.7-4.5,.7-1.4,1.6-2.8,2.6-4,1-1.2,2.2-2.3,3.3-3.3,.9-.7,2.2-.6,2.9,.3,.7,.8,.6,1.9,0,2.7h-.1c-.8,1.1-1.6,2-2.2,3.1-.6,1-1.1,2.2-1.5,3.3-.4,1.1-.6,2.3-.7,3.5,0,.6,0,1.2,0,1.7,0,.3,0,.6,0,.8,0,.1,0,.3,0,.4,0,0,0,.1,0,.2,0,0,0,.1,0,0,.2,1.9-1.1,3.6-3,3.8-1.9,.2-3.6-1.1-3.8-3Z"/>
    <path class="cls-13" d="M295.9,1217.7s2.1,11.3-6.3,15.8c0,0-4-.5-7-3.9,0,0-1.4,3.4-5.6,4.7,0,0-13.9-3.7-13.6-18.6,0,0,2.8,.6,4.5,2.1,0,0,5,5.9,13,5.8,5.2,0,5.7-5.8,5.7-5.8,0,0,3.6-1.5,9.3,0Z"/>
    <path class="cls-10" d="M225.5,1103.6c8.2-3,6.9-12.9,10.5-12.3,5.2,4.9-2.9,17.1-8.2,20-6.3,4.1-9.8-7.7-2.3-7.7Z"/>
    <path class="cls-30" d="M279.1,1173c0,0-.2,0-.3,0-.3-.1-.4-.5-.3-.8,0-.2,1.9-4,6.1-4.7,.3,0,.7,.2,.7,.5,0,.3-.2,.7-.5,.7-3.5,.6-5.2,4-5.2,4.1-.1,.2-.3,.4-.6,.4Z"/>
    <path class="cls-30" d="M295.6,1167.3c0,0-.2,0-.3,0-2.8-1.3-5,0-5.1,0-.3,.2-.7,0-.8-.2-.2-.3,0-.7,.2-.8,.1,0,2.8-1.6,6.2,0,.3,.1,.5,.5,.3,.8-.1,.2-.3,.4-.6,.4Z"/>
  </g>
  <g id="_-8" data-name="2">
    <path class="cls-10" d="M591.5,896.8c10.2-45.2,26.7-94.1,64.5-123.6,5.1-3.9,11.9,3.3,7.6,8.1-3.4,4-6.3,8.3-9,12.8-7.7,13.6-12.4,28.6-15.5,43.9-4,20.3-5.8,41.2-4.9,61.8,4,36.3-51,32.8-42.7-3.1Z"/>
    <path class="cls-10" d="M668.8,758.8s-11.7,6.2-16.1,17.2l8.9,7.4c4.4-1.7,10.3-5.7,11.9-8.6,4.7-8.4-4.6-16-4.6-16Z"/>
    <path class="cls-10" d="M736.2,781.3s5.9,10.8,2.6,22.3l-12,1.6c-2.4-4.1-4.6-10.8-4.1-14,1.5-9.5,13.5-9.8,13.5-9.8Z"/>
    <path class="cls-22" d="M799.8,713.7c12.6-39.9-9.5-82.5-49.4-95.1-39.9-12.6-82.5,9.5-95.1,49.4-6.6,20.8-3.7,42.3,6.2,60l-.6,30.6c-.2,11.1,6.9,20.9,17.4,24.3l36.7,11.6c10.5,3.3,22-.7,28.2-9.9l17.1-25.4c18.2-8.7,33-24.7,39.5-45.5Z"/>
    <g>
      <path class="cls-11" d="M713.7,808.3l-42.4-13.4c-2.5-.8-3.9-3.5-3.1-6,.8-2.5,3.5-3.9,6-3.1l42.4,13.4c2.5,.8,3.9,3.5,3.1,6-.8,2.5-3.5,3.9-6,3.1Z"/>
      <path class="cls-11" d="M709.6,821.5l-42.4-13.4c-2.5-.8-3.9-3.5-3.1-6,.8-2.5,3.5-3.9,6-3.1l42.4,13.4c2.5,.8,3.9,3.5,3.1,6-.8,2.5-3.5,3.9-6,3.1Z"/>
      <path class="cls-11" d="M705.4,834.6l-42.4-13.4c-2.5-.8-3.9-3.5-3.1-6,.8-2.5,3.5-3.9,6-3.1l42.4,13.4c2.5,.8,3.9,3.5,3.1,6-.8,2.5-3.5,3.9-6,3.1Z"/>
      <path class="cls-11" d="M661.8,831.7h39.4v3.8c0,3.3-2.6,5.9-5.9,5.9h-27.6c-3.3,0-5.9-2.6-5.9-5.9v-3.8h0Z" transform="translate(284.1 -166.6) rotate(17.6)"/>
    </g>
    <g>
      <path class="cls-11" d="M686.5,705c-1.2-.4-2.2-1.2-2.8-2.3-1.2-2.3-.3-5.2,2-6.4l39.4-20.5c2.3-1.2,5.2-.3,6.4,2,1.2,2.3,.3,5.2-2,6.4l-39.4,20.5c-1.2,.6-2.5,.7-3.6,.3Z"/>
      <path class="cls-11" d="M704.8,710.8c-1.2-.4-2.2-1.2-2.8-2.3-1.2-2.3-.3-5.2,2-6.4l39.4-20.5c2.3-1.2,5.2-.3,6.4,2,1.2,2.3,.3,5.2-2,6.4l-39.4,20.5c-1.2,.6-2.5,.7-3.6,.3Z"/>
      <path class="cls-11" d="M723.1,716.6c-1.2-.4-2.2-1.2-2.8-2.3-1.2-2.3-.3-5.2,2-6.4l39.4-20.5c2.3-1.2,5.2-.3,6.4,2,1.2,2.3,.3,5.2-2,6.4l-39.4,20.5c-1.2,.6-2.5,.7-3.6,.3Z"/>
    </g>
    <path class="cls-22" d="M678.3,612.1c-1.2-.4-2.2-1.2-2.8-2.3l-16.2-31.2c-1.2-2.3-.3-5.2,2-6.4,2.3-1.2,5.2-.3,6.4,2l16.2,31.2c1.2,2.3,.3,5.2-2,6.4-1.2,.6-2.5,.7-3.6,.3Z"/>
    <path class="cls-22" d="M629.1,670.7l-33.5-10.6c-2.5-.8-3.9-3.5-3.1-6,.8-2.5,3.5-3.9,6-3.1l33.5,10.6c2.5,.8,3.9,3.5,3.1,6-.8,2.5-3.5,3.9-6,3.1Z"/>
    <path class="cls-22" d="M604.5,763.2c-1.2-.4-2.2-1.2-2.8-2.3-1.2-2.3-.3-5.2,2-6.4l31.2-16.2c2.3-1.2,5.2-.3,6.4,2,1.2,2.3,.3,5.2-2,6.4l-31.2,16.2c-1.2,.6-2.5,.7-3.6,.3Z"/>
    <path class="cls-22" d="M786.7,820.8c-1.2-.4-2.2-1.2-2.8-2.3l-16.2-31.2c-1.2-2.3-.3-5.2,2-6.4,2.3-1.2,5.2-.3,6.4,2l16.2,31.2c1.2,2.3,.3,5.2-2,6.4-1.2,.6-2.5,.7-3.6,.3Z"/>
    <path class="cls-22" d="M853.2,741.6l-33.5-10.6c-2.5-.8-3.9-3.5-3.1-6,.8-2.5,3.5-3.9,6-3.1l33.5,10.6c2.5,.8,3.9,3.5,3.1,6-.8,2.5-3.5,3.9-6,3.1Z"/>
    <path class="cls-22" d="M813.1,654.8c-1.2-.4-2.2-1.2-2.8-2.3-1.2-2.3-.3-5.2,2-6.4l31.2-16.2c2.3-1.2,5.2-.3,6.4,2,1.2,2.3,.3,5.2-2,6.4l-31.2,16.2c-1.2,.6-2.5,.7-3.6,.3Z"/>
    <path class="cls-22" d="M754.6,605.6c-2.5-.8-3.9-3.5-3.1-6l10.6-33.5c.8-2.5,3.5-3.9,6-3.1,2.5,.8,3.9,3.5,3.1,6l-10.6,33.5c-.8,2.5-3.5,3.9-6,3.1Z"/>
    <path class="cls-11" d="M699.3,780.1c-2.5-.8-3.9-3.5-3.1-6l14-44.4c.8-2.5,3.5-3.9,6-3.1,2.5,.8,3.9,3.5,3.1,6l-14,44.4c-.8,2.5-3.5,3.9-6,3.1Z"/>
    <path class="cls-23" d="M819.9,1648.4c-48-143.1-101.1-301.4-149-444.1-3-9.3-18.7-4.8-15.4,4.6l12.9,38.5h-93.6l-14.4-43c-3-9.3-18.7-4.9-15.4,4.6,47.8,142.5,100.9,300.8,149,444.1,3,9.3,18.7,4.8,15.4-4.6l-14.5-43.2h93.6l16,47.7c1.1,3.2,4.3,5.3,7.7,5.3,5.3,0,9.4-5.1,7.7-9.8Zm-172.2-184.1h93.6l17.5,52.2h-93.6l-17.5-52.2Zm65.9-82.4h-93.6l-17.5-52.2h93.6l17.5,52.2Zm5.1,15.1l17.5,52.2h-93.6l-17.5-52.2h93.6Zm-45.2-134.6l17.5,52.2h-93.6l-17.5-52.2h93.6Zm18.4,327.6c-.7,0-1.3,0-2,.2l-19.7-58.7h93.6l19.6,58.5h-91.5Z"/>
    <path class="cls-10" d="M605.8,1247.7l-45.7-.4c.6-15.8,3.1-39.2,5.6-55.4l23.3,.9-8.8,32.7c-.5,4,1.1,7.5,4.9,8.8,8.4,3.4,18.8,1.6,23.6,9.1,.9,2-.6,4.3-2.8,4.3Z"/>
    <path class="cls-17" d="M558.8,1242.9c.2,1.5,.4,3.4,1.2,4.8h45.8c2.2,0,3.8-2.2,3.1-4.3-1.7-4.9-7.6-12.1-28.7-13.4,0,0-7.2,2.1-18.9-.2,0,0-3.2,6.8-2.5,13Z"/>
    <path class="cls-29" d="M595.5,1241.7c.4,0,.7-.2,.9-.6,1.7-4.1,4.7-5.4,4.9-5.4,2.4-3.7-4.5-1.1-6.6,4.7-.3,.6,.2,1.3,.9,1.3Z"/>
    <path class="cls-29" d="M588.3,1240.8c.4,0,.8-.3,.9-.6,1.5-4.8,5.7-6.9,5.8-7,2-4.3-5.7,.2-7.5,6.4-.2,.6,.3,1.2,.9,1.2Z"/>
    <path class="cls-29" d="M580.1,1239.7c.4,0,.7-.2,.9-.6,1.8-5,5.8-7.6,5.8-7.6,1.5-4.5-5.5,.9-7.6,7-.2,.6,.2,1.2,.9,1.2Z"/>
    <path class="cls-2" d="M608.9,1243.4l-50.1-.5c.2,1.5,.6,3,1.3,4.4l45.7,.4c2.3,0,3.9-2.2,3.1-4.3Z"/>
    <path class="cls-10" d="M660.9,930.3c67.5-14.5,105.9-57.6,77.9-126.7-4.2-8.2-13.2-6.1-11.9,2.7,8.8,57.7-17.7,77.5-70,79.8,0,0-.1,0,0,0-28.9,2.7-25,46.7,4,44.3Z"/>
    <path class="cls-10" d="M657.3,1247.7h-45c-1.7-11.1,8.1-47.4,10.9-57.6l24.4,5.1-12.3,29.5s-5.7,7.8,1.8,9.9c8.3,2.8,17.3,1.8,22.9,7.7,1.7,2.3,0,5.5-2.8,5.5Z"/>
    <path class="cls-17" d="M611,1243.4c.2,1.5,.6,3,1.4,4.4h45.7c2.2,0,3.8-2.3,3.1-4.3-1.7-4.9-7.8-12-28.8-13.1,0,0-7.2,2.1-18.9,0,0,0-3.1,6.8-2.4,13Z"/>
    <path class="cls-29" d="M647.7,1241.8c.4,0,.7-.2,.9-.6,1.7-4.1,4.7-5.4,4.8-5.5,2.4-3.7-4.5-1.1-6.5,4.8-.3,.6,.2,1.3,.9,1.3Z"/>
    <path class="cls-29" d="M640.5,1240.9c.4,0,.8-.3,.9-.7,1.5-4.8,5.6-7,5.7-7,2-4.3-5.7,.3-7.4,6.5-.2,.6,.3,1.2,.9,1.2Z"/>
    <path class="cls-29" d="M632.3,1239.9c.4,0,.7-.2,.9-.6,1.7-5,5.7-7.7,5.8-7.7,1-.6,0-2.2-1-1.5-.2,.1-4.5,3.1-6.5,8.6-.2,.6,.3,1.2,.9,1.2Z"/>
    <path class="cls-2" d="M661.1,1243.3h-50.1c.2,1.6,.6,3.1,1.4,4.4h45.7c2.3,0,3.9-2.3,3.1-4.4Z"/>
    <path class="cls-5" d="M661.6,1014.2l-96.1-14.6c20.8-147.1,90.2-152.5,101.5-69.4,3.3,21.1-2.3,71.7-5.5,84Z"/>
    <path class="cls-14" d="M666.4,981.2c1.2-25.2-10-49.6-10-49.6l10.7-1.4c1.7,17.1,.8,35.7-.7,51Z"/>
    <path class="cls-5" d="M659.7,786.5s-1.1,1.8-2.7,4.6c-3.4,6-8.7,16.6-8.7,23,0,9.3-22.5-11.8-22.5-11.8,0,0,7.1-10.3,19-20.2,1.5-1.2,3-2.5,4.7-3.7,0,0,3.2,6.7,10.1,8.1Z"/>
    <path class="cls-5" d="M749.5,864.4c-5.1,28.3-29.3,52.2-53.5,58.6-24.2,6.4-39.7,8.6-39.7,8.6,0,0-16.6-46.6,2.2-47.9,18.9-1.3,44.1-7.7,57.1-23.1,9.6-11.4,11.5-33.4,11.7-44.2,.1-3.8,0-6.2,0-6.2,6.9,2.3,13.2-1.7,13.2-1.7,0,0,.9,1.8,2.1,4.9,3.7,9.2,10.4,29.9,6.7,51Z"/>
    <path class="cls-12" d="M555.6,1213.7s17.2,9,33.5,3.8c21.4-51.8,31.6-122.5,26-173.8,1.5-2.2,30,72.8-.9,174.2,0,0,11.2,9.1,26.5,6.1,18.8-36.1,62.1-123.1,25.1-238.2-12.2-4.8-82.1-11.5-96.8-4.4,0,0-15.8,29.1-8.5,68.4,9.7,52.4,0,130.5-3.7,155.7h0c-.7,5.2-1.2,8.1-1.2,8.1Z"/>
    <path class="cls-9" d="M645.1,1216.2c-2.6,5.1-4.3,7.8-4.3,7.8-15.4,3-26.6-6.1-26.6-6.1,.7-2.5,1.4-5,2.1-7.5,0,0,11.3,9.3,28.8,5.8Z"/>
    <path class="cls-9" d="M569.3,977.1s40.1-12.6,96.9,6c0,0,2.4,4.1,1.3,7.4,0,0-60.8-12.5-100.8-3.9,0,0-.4-4.9,2.6-9.5Z"/>
    <path class="cls-27" d="M642.6,798.6c-12.4-2.5-30.7,3.4-36.6,26.7-4.8,18.9-23.4,15.9-37.3,38.6-14.5,23.7-2.9,45,18.1,57.3,38.6,23.2,101.2-18.9,81.4-64.7-8.4-19.8-4.3-53.5-25.6-57.8Z"/>
    <path class="cls-9" d="M555.6,1213.7s17.2,9,33.5,3.8c0,0,.9-2.5,2.3-6.6,0,0-16.8,3.7-34.5-5.4-.7,5.2-1.2,8.1-1.2,8.1Z"/>
    <path class="cls-9" d="M583.2,1214h7.1c20.7-49.7,30.2-121.5,24.8-170.2,0,0-8.8-5-10.2-18.2,4.1,50.7,10.1,107.1-21.7,188.4Z"/>
    <path class="cls-5" d="M402.9,1658.2c3.4,0,6.6-2.1,7.7-5.3l16-47.7h93.6l-14.5,43.2c-3.3,9.4,12.3,13.9,15.4,4.6,48.1-143.2,101.2-301.5,149-444.1,3.3-9.4-12.4-13.8-15.4-4.6l-14.4,43h-93.6l12.9-38.5c3.3-9.4-12.4-13.9-15.4-4.6-47.9,142.6-101,301-149,444.1-1.7,4.8,2.4,9.9,7.7,9.8Zm147-141.7h-93.6l17.5-52.2h93.6l-17.5,52.2Zm-30.9-186.7h93.6l-17.5,52.2h-93.6l17.5-52.2Zm71,67.3l-17.5,52.2h-93.6l17.5-52.2h93.6Zm45.2-134.6l-17.5,52.2h-93.6l17.5-52.2h93.6Zm-203.5,327.6l19.6-58.5h93.6l-19.7,58.7c-.6-.1-1.3-.2-2-.2h-91.5Z"/>
    <path class="cls-10" d="M732.1,799c2.5-7.2-4.2-13.9-1.7-15.5,5.7-.2,7.9,11.5,7.6,16.2-.1,4.2-6.8,3.4-5.9-.8Z"/>
    <path class="cls-10" d="M656,772.3c2.2-3.6,12.7-12.5,16.1-7.8,.1,.8-.4,1.6-1.1,1.9-4.3,1.5-8,4.9-9.9,9.1-1.9,3.7-7.6,.3-5.1-3.1Z"/>
    <path class="cls-14" d="M742.9,813.4c-7.1,4.6-15.4,3-15.4,3h0c.1-3.8,0-6.2,0-6.2,6.9,2.3,13.2-1.7,13.2-1.7,0,0,.9,1.8,2.1,4.9Z"/>
    <path class="cls-14" d="M659.7,786.5s-1.1,1.8-2.7,4.6c-8.1,0-12.2-9-12.2-9,1.5-1.2,3-2.5,4.7-3.7,0,0,3.2,6.7,10.1,8.1Z"/>
  </g>
  <g id="_-9" data-name="1">
    <path class="cls-10" d="M1250.9,1638.7l40.7-4.2c3.5-.5,3.1-4.1,2.2-6.9-3.3-9.9-1.7-33.5-2.1-44,0-1.9-1.7-3.4-3.6-3.2l-17.9,1.9c-1.9,.2-3.3,2.1-2.8,4l5.9,25.7c2.5,11.9-9.9,14.2-17.9,16.7-3.1,1.1-6.4,2.7-7.7,5.3-1.2,2.3,.6,5.1,3.2,4.8Z"/>
    <path class="cls-28" d="M1295.6,1629.8c0,2-.7,4.4-3,4.6l-42.2,4.4c-10.9-2.1,3-18.5,22.1-19.3,1.5,.2,8.7,.7,17-1.4,4.7-1,5.8,7.6,6,11.7Z"/>
    <path class="cls-29" d="M1259.9,1632c-.4,0-.7-.1-.9-.5-2.1-3.9-5.2-4.8-5.2-4.8-1.1-.3-.6-2.1,.5-1.7,.2,0,3.9,1.1,6.3,5.7,.3,.5,0,1.3-.7,1.3Z"/>
    <path class="cls-29" d="M1266.8,1630.4c-.4,0-.8-.2-.9-.5-1.9-4.5-6.2-6.2-6.2-6.2-1.1-.4-.4-2.1,.7-1.7,.2,0,5,2,7.2,7.2,.2,.5-.1,1.2-.7,1.2Z"/>
    <path class="cls-29" d="M1274.6,1628.6c-.4,0-.7-.2-.9-.5-2.2-4.6-6.3-6.9-6.3-6.9-1-.5-.2-2.2,.8-1.6,.2,0,4.7,2.5,7.1,7.7,.3,.5-.1,1.2-.7,1.3Z"/>
    <path class="cls-26" d="M1247.1,1634.8l48.5-5c0,1.5-.3,3-.9,4.4l-44.3,4.6c-2.2,.2-4-1.8-3.4-3.9Z"/>
    <path class="cls-10" d="M1453.2,1565.4l13-38.8c1-3.4-2.5-4.6-5.3-4.8-10.4-1.1-31.3-12.3-40.9-16.3-1.8-.8-3.8,.1-4.4,1.9l-5.7,17.1c-.6,1.9,.5,3.8,2.4,4.2l25.9,5.2c11.9,2.7,8.9,14.8,7.8,23.2-.3,3.3-.1,6.9,1.7,9.2,1.6,2.1,4.8,1.5,5.7-.9Z"/>
    <path class="cls-28" d="M1463.6,1521c1.9,.7,3.7,2.4,2.9,4.6l-13.5,40.2c-6.4,9-15.6-10.4-8.4-28.1,.8-1.3,4.2-7.6,5.8-16,1-4.7,9.3-2.1,13.2-.7Z"/>
    <path class="cls-29" d="M1450.8,1554.4c-.1,.3-.4,.6-.8,.6-4.4,.3-6.5,2.7-6.5,2.8-.7,.9-2.1-.3-1.4-1.2,.1-.1,2.6-3.1,7.8-3.4,.6,0,1.1,.6,.9,1.2Z"/>
    <path class="cls-29" d="M1452.3,1547.5c-.1,.4-.5,.6-.9,.6-4.9-.1-8.2,3.1-8.2,3.1-.8,.8-2.1-.5-1.3-1.3,.2-.2,3.9-3.7,9.5-3.6,.6,0,1,.6,.8,1.2Z"/>
    <path class="cls-29" d="M1453.9,1539.7c-.1,.4-.5,.6-.8,.6-5.1,0-8.9,2.9-8.9,2.9-.9,.7-2-.7-1.1-1.4,.2-.1,4.2-3.3,10-3.3,.6,0,1.1,.6,.9,1.2Z"/>
    <path class="cls-26" d="M1448.1,1567.3l15.5-46.3c1.4,.6,2.6,1.5,3.6,2.6l-14.1,42.2c-.7,2.1-3.3,2.9-5,1.5Z"/>
    <path class="cls-21" d="M1316,1211.8c18.4,18.4-3.7,41.2-22.4,22.9-18.4-18.4,3.7-41.2,22.4-22.9Z"/>
    <path class="cls-15" d="M1282.5,1282.3c-54.1,63-112.4,48.9-127.8-33.4-1.6-9.9,9.7-11.1,12.2,.4,10,24.1,32.4,61,62.3,41.6,11.2-7.4,24.1-29.8,45.2-39.8,0,0,3.3,1.6,6.8,4.5h0c8.4,6.9,14.3,16.2,1.3,26.8Z"/>
    <path class="cls-9" d="M1269.2,1253.8s-11.2,.5-21.1,14.6c-9.9,14.2-16.7,14.6-16.6,20.6,0,0,12.1,8.8,13.3,25.4,0,0,9.3,2.3,14.7-2.8,5.4-5.2,34.6-36.6,9.7-57.8Z"/>
    <path class="cls-22" d="M1234.6,1233.5c13.1-28.2,1-61.6-27.2-74.8-28.2-13.1-61.6-1-74.8,27.2-6.9,14.7-6.8,30.8-1.2,44.7l-3.4,22.5c-1.2,8.1,3,16.1,10.5,19.6l25.9,12.1c7.4,3.5,16.3,1.6,21.7-4.5l15-17c14.3-4.7,26.7-15,33.5-29.7Z"/>
    <g>
      <g>
        <path class="cls-11" d="M1162.1,1294.8l-29.9-14c-1.8-.8-2.5-2.9-1.7-4.7,.8-1.8,2.9-2.5,4.7-1.7l29.9,14c1.8,.8,2.5,2.9,1.7,4.7-.8,1.8-2.9,2.5-4.7,1.7Z"/>
        <path class="cls-11" d="M1157.8,1304.1l-29.9-14c-1.8-.8-2.5-2.9-1.7-4.7,.8-1.8,2.9-2.5,4.7-1.7l29.9,14c1.8,.8,2.5,2.9,1.7,4.7-.8,1.8-2.9,2.5-4.7,1.7Z"/>
        <path class="cls-11" d="M1153.4,1313.4l-29.9-14c-1.8-.8-2.5-2.9-1.7-4.7,.8-1.8,2.9-2.5,4.7-1.7l29.9,14c1.8,.8,2.5,2.9,1.7,4.7-.8,1.8-2.9,2.5-4.7,1.7Z"/>
        <path class="cls-11" d="M1121,1308.9h29.2v2.8c0,2.4-2,4.4-4.4,4.4h-20.5c-2.4,0-4.4-2-4.4-4.4v-2.8h0Z" transform="translate(662 -357.2) rotate(25)"/>
      </g>
      <g>
        <path class="cls-11" d="M1152,1216.1c-.8-.4-1.5-1.1-1.8-2-.7-1.8,.3-3.9,2.1-4.5l31-11.3c1.8-.7,3.9,.3,4.5,2.1,.7,1.8-.3,3.9-2.1,4.5l-31,11.3c-.9,.3-1.9,.3-2.7-.1Z"/>
        <path class="cls-11" d="M1164.9,1222.2c-.8-.4-1.5-1.1-1.8-2-.7-1.8,.3-3.9,2.1-4.5l31-11.3c1.8-.7,3.9,.3,4.5,2.1,.7,1.8-.3,3.9-2.1,4.5l-31,11.3c-.9,.3-1.9,.3-2.7-.1Z"/>
        <path class="cls-11" d="M1177.9,1228.2c-.8-.4-1.5-1.1-1.8-2-.7-1.8,.3-3.9,2.1-4.5l31-11.3c1.8-.7,3.9,.3,4.5,2.1,.7,1.8-.3,3.9-2.1,4.5l-31,11.3c-.9,.3-1.9,.3-2.7-.1Z"/>
      </g>
    </g>
    <path class="cls-11" d="M1154.2,1272.7c-1.8-.8-2.5-2.9-1.7-4.7l14.6-31.3c.8-1.8,2.9-2.5,4.7-1.7,1.8,.8,2.5,2.9,1.7,4.7l-14.6,31.3c-.8,1.8-2.9,2.5-4.7,1.7Z"/>
    <path class="cls-10" d="M1273.7,1243.1l.7,7.8c3.3,8.9,14.8,4.4,19.4-1.7,0,0-1.2-5.8-1.5-8.5l-18.6,2.4Z"/>
    <path class="cls-21" d="M1282.3,1178.8c-27-8-37.5,31.1-23.2,48.4l23.2-48.4Z"/>
    <path class="cls-15" d="M1291.9,1221.6c0,.3,0,.7,0,1-.5-.2-.3,11.5,.7,20-7.7,4.5-16.8,4.1-18.5,4-1.1-13.6-5.4-26.4,3.9-33.2,5.9-3.3,14.2,1.3,14,8.2Z"/>
    <path class="cls-10" d="M1303.7,1212.3c-.4,8.5-2.1,18.1-8.1,24.3h0c-16.1,18.2-56.8-2.4-40.5-24.8,2.3-2.8,4-6.4,4.7-9.6,6.1-33.2,46.3-19.2,43.9,10Z"/>
    <path class="cls-8" d="M1264.2,1226.6l10.4-6.8c1.9,6.6-5.1,11.4-10.4,6.8Z"/>
    <path class="cls-30" d="M1270.8,1211c-1-1.4,1.3-2.8,2.1-1.4,1,1.4-1.3,2.8-2.1,1.4Z"/>
    <path class="cls-30" d="M1259.8,1210.5c-1-1.4,1.3-2.8,2.1-1.4,1,1.4-1.3,2.8-2.1,1.4Z"/>
    <path class="cls-30" d="M1264.2,1227.1c-.5,0-.7-.6-.3-.9,.3,0,11-7.9,11.1-6.7,.7,.8-10.6,7.3-10.8,7.6Z"/>
    <path class="cls-30" d="M1264.4,1220.9c-2.2,0-5.2-1.2-2.7-3.3,2.9-2,2.9-7.1,4-7.1,1.4,.8-1.8,6.5-4,8.6,.4,.7,2.8,1.2,4.4,.5,.2-.1,.5,0,.6,.2,.2,1.1-1.6,.9-2.4,1Z"/>
    <path class="cls-5" d="M1428.9,1550.1s-4.6-.6-12-2.7c-26.8-7.6-90.8-34.2-110.2-118.3,0,0-9,67,8.2,156.8,.8,4,1.6,8,2.4,12,0,0-3.2,1.8-8.4,4-12.5,5.2-36.9,12.7-57.8,3.1-.5-3.1-1-6.1-1.5-9.1-15-95.8-8.5-157.4,5.5-220.6l96-14.2c15.4,29,15.2,64.9,27.5,84.3,19.2,30.2,43.4,42.8,56.8,47.8,6.3,2.3,10.2,3,10.2,3,.7,30.8-16.8,54-16.8,54Z"/>
    <path class="cls-10" d="M1350.3,1358.7s-49.1,28.5-94.5,14.9c0,0-3.3-2.5-2.1-9.2,8.8-25.5-1.4-38.1-4.6-52.4-1.9-8.4-1.3-17.4,7-29.9,3.7-5.7,9.9-16.2,14.4-24.1,1.6-2.7,2.9-5.2,4-7,0,.6,.8,1.2,3.1,2.8,.9,.6,2,1.5,3.7,1.7h0c2.6,.3,6.4-.8,12.6-6.2,1.9,.1,3.7,.3,5.4,.6,15.4,2.8,25.6,13.4,32.5,27.2,13.2,26.4,14.6,64.5,18.6,81.6Z"/>
    <path class="cls-15" d="M1303.7,1212.3c-.4,8.5-2.1,18.1-8.1,24.3h0c3.2-4.9,4.2-15.2,4.2-15.2l-2.3-4.3c-30.5-5.8-30.8-29.2-30.8-29.2,16.5-15.1,38.8,4.8,37,24.3Z"/>
    <path class="cls-21" d="M1269.6,1185.6s.4,23,27.8,29.2l10.2,4.6c15.3-28.3-16.5-59.9-38.1-33.8Z"/>
    <path class="cls-10" d="M1309.6,1215.9c-.8,9.5-13.1,8.5-12.1-1.1,.8-9.5,13.1-8.5,12.1,1.1Z"/>
    <path class="cls-30" d="M1306.7,1218.2c-.3,0-.5-.3-.5-.6,.5-2.9,.3-4.8-.7-5.5-1.5-1.3-3.5,.8-4.5,0,2.4-4,9.1,.4,5.7,6Z"/>
    <path class="cls-30" d="M1302.1,1218c-1.7,.3,2-6.6,5.1-5.1,0,.3-.1,.5-.4,.6-3.8,.8-3.7,4.4-4.7,4.5Z"/>
    <path class="cls-13" d="M1304.8,1220.8c.2,1.4-2,1.6-2.2,.3-.2-1.4,2-1.6,2.2-.3Z"/>
    <path class="cls-12" d="M1351.2,1361.1s-50.5,27.7-96,14.2c0,0-2.8-4.2-1.6-10.9,8.8-25.5-1.4-38.1-4.6-52.4-1.9-8.4-1.3-17.4,7-29.9,2.9-4.5,8-19.7,13.2-28.3,0,0,1.1-1,2.6-1.5,.4,3.7,.5,13.9,5.7,14.3,3.8,.3,6.7-2.2,9.4-5.4,3.6-4.2,7-9.6,12.3-11.3,15.9,1.9,25.6,13.4,32.5,27.2,13.2,26.4,15.5,66.9,19.5,84Z"/>
    <path class="cls-10" d="M1322.5,1277.5c-31.2,63.4-104,75.9-127.6-.2-4.1-8.9,6.7-13.6,10.6-4.7,28.4,47.2,64.2,37.7,83.9-9.4,9.5-21.6,42.4-7.4,33.1,14.3Z"/>
    <path class="cls-9" d="M1307.2,1251.8c-11.3,0-15.7,5-19.7,13.6-4.1,8.6-17.5,19.2-16.9,26.9,0,0,19.2,4.7,22,23.3,0,0,10.8-3.4,17.1-12.4,6.3-8.9,16.6-21.2,16.7-28.9,.2-7.7-4.3-22.6-19.2-22.5Z"/>
    <path class="cls-10" d="M1203.5,1252.5c-2.8,.4-1.1,6.4-2.5,8.7-2.9-3.3-4.9-7.4-4.9-7.4-1.3-5-2.4-10-3.3-15.1-.1-.7-.5-1.3-1.1-1.7-4-2.7-.5,15-.5,17.1h0c-2.5-4.8-4.7-9.7-6.5-14.8-.2-.7-.8-1.3-1.4-1.6-4.6-2,3.4,16.9,4,18.8h0c-3.1-4.1-5.7-8.6-7.8-13.2-.3-.7-.9-1.3-1.7-1.4-4.5-.9,4.9,16.7,6.2,18.6h0c-2.8-2.8-5.3-6-7.7-9.2-.4-.6-1.1-1.1-1.9-1.1-4.4-.4,5.9,13.7,7.2,15.3,.4,1.5,6.4,7.5,13.9,13.7,2.5,2,9-4,9.5-7.1-.3-4.4,1.8-19-1.4-19.3Z"/>
    <path class="cls-30" d="M1275,1208c-.1,0-.3,0-.4-.2,0,0-2.4-2.9-5.6-2.4-.2,0-.5-.1-.5-.4,0-.2,.1-.5,.4-.5,3.8-.6,6.4,2.6,6.5,2.7,.2,.2,.1,.5,0,.6,0,0-.2,.1-.3,.1Z"/>
    <path class="cls-30" d="M1258.9,1207.6c0,0-.1,0-.2,0-.2-.1-.3-.4-.2-.6,1.8-3.7,5.4-2.8,5.4-2.8,.2,0,.4,.3,.3,.6,0,.2-.3,.4-.6,.3-.1,0-2.9-.7-4.4,2.3,0,.2-.2,.3-.4,.3Z"/>
    <path class="cls-14" d="M1314.9,1585.8c-17.2-89.7-8.2-156.8-8.2-156.8,0,0-5.5-4.7-8.2-13.8,0,0-14.7,91,7.2,174.8-29.8,12-55.9,5.8-55.9,5.8,.5,3,.9,6,1.5,9.1,20.9,9.6,45.3,2.1,57.8-3.1,5.2-2.2,8.4-4,8.4-4-.9-4.1-1.7-8.1-2.4-12Z"/>
    <path class="cls-14" d="M1428.9,1550.1s-4.6-.6-12-2.7h0s19.9-23.9,18.6-54.2c6.3,2.3,10.2,3,10.2,3,.7,30.8-16.8,54-16.8,54Z"/>
  </g>
</svg>