<?xml version="1.0" encoding="UTF-8"?>
<svg id="Layer_1" data-name="Layer 1" xmlns="http://www.w3.org/2000/svg" viewBox="0 0 2585.9 1558.1">
  <defs>
    <style>
      .cls-1, .cls-2 {
        fill: #fff;
      }

      .cls-3, .cls-4, .cls-5 {
        opacity: .6;
      }

      .cls-3, .cls-6 {
        fill: #e28b6d;
      }

      .cls-7, .cls-5 {
        fill: #6f3428;
      }

      .cls-8, .cls-9 {
        fill: #1f3c88;
      }

      .cls-8, .cls-10 {
        opacity: .3;
      }

      .cls-4, .cls-11 {
        fill: #102048;
      }

      .cls-10 {
        stroke: #6f3428;
      }

      .cls-10, .cls-12, .cls-2, .cls-13 {
        stroke-miterlimit: 10;
      }

      .cls-10, .cls-12, .cls-13 {
        fill: none;
      }

      .cls-10, .cls-13 {
        stroke-width: 8px;
      }

      .cls-14 {
        fill: #fc8879;
        opacity: .4;
      }

      .cls-15 {
        fill: #f6f5f5;
      }

      .cls-16 {
        fill: #e4e4e4;
      }

      .cls-17 {
        fill: #708cd5;
      }

      .cls-12 {
        stroke: #e4e4e4;
        stroke-dasharray: 0 0 32.1 32.1;
        stroke-width: 4px;
      }

      .cls-2 {
        stroke: #708cd5;
        stroke-width: 6px;
      }

      .cls-13 {
        stroke: #102048;
      }

      .cls-18 {
        fill: #ee6f57;
      }

      .cls-19 {
        fill: #a9bae6;
      }

      .cls-20 {
        fill: #fbc343;
      }

      .cls-21 {
        fill: #d3dfff;
      }

      .cls-22 {
        fill: #f9b384;
      }
    </style>
  </defs>
  <path class="cls-12" d="M2471.6,1063c125.3,224.2-56,664-1205.6,358.3-576.4-153.3-1007,192-1095.7-49C-36.4,811,807.6,161.7,1276.9,615c429,414.4,966.7,40,1194.7,448Z"/>
  <g>
    <rect class="cls-19" x="1203.4" y="138.4" width="1030.3" height="1413.4" rx="74.3" ry="74.3"/>
    <g>
      <g>
        <rect class="cls-15" x="1296.5" y="195.3" width="848" height="1231.9"/>
        <path class="cls-16" d="M2144.6,195.3c.3,480.4,15.8,1059.7-38.2,1188-237.7,23.2-516,30.6-809.9,32l111.7-1216.2,736.3-3.7Z"/>
        <path class="cls-1" d="M2068.4,1344.5c-370.4,59.3-618,62.4-818.8,47.5,26-277,36.5-737.2,46.9-1196.6l446.4,1,404,26.7c5.9,476.8,6.5,917.3-78.5,1121.5Z"/>
      </g>
      <g>
        <rect class="cls-17" x="1490.5" y="314.2" width="446.2" height="68" transform="translate(8.7 -40.2) rotate(1.3)"/>
        <g>
          <g>
            <g>
              <rect class="cls-17" x="1620.7" y="481" width="402.5" height="31.1" transform="translate(12.2 -42.7) rotate(1.3)"/>
              <rect class="cls-21" x="1619.1" y="547.3" width="273.6" height="31.1" transform="translate(13.7 -41.2) rotate(1.3)"/>
            </g>
            <g>
              <rect class="cls-2" x="1397.9" y="474" width="95.3" height="95.3" transform="translate(12.7 -33.9) rotate(1.3)"/>
              <path class="cls-18" d="M1414.6,497.9c2.9,11.3,8.4,58.4,32,45.2,5.4-3,10.1-11.1,14.1-15.7l22-24.9,43.9-49.9c3.8-4.3-12.8-15-17.5-9.6l-39.1,44.3c-6.5,7.4-13,14.8-19.5,22.2-4.5,5.1-15,21.7-21.7,23.1,3.6,1.2,7.3,2.4,10.9,3.5,2.6,2.1-2.2-12.9-2.3-13.3-1.8-7-3.6-13.9-5.5-20.9-1.5-5.7-19.6-12.7-17.4-4.1h0Z"/>
            </g>
          </g>
          <g>
            <g>
              <rect class="cls-17" x="1616.6" y="653.3" width="331.5" height="31.1" transform="translate(16.2 -41.8) rotate(1.3)"/>
              <rect class="cls-21" x="1615" y="722" width="402.5" height="31.1" transform="translate(17.9 -42.5) rotate(1.3)"/>
            </g>
            <g>
              <rect class="cls-2" x="1393.8" y="647.1" width="95.3" height="95.3" transform="translate(16.7 -33.7) rotate(1.3)"/>
              <path class="cls-18" d="M1410.4,673.8c2.9,11.3,8.4,58.4,32,45.2,5.4-3,10.1-11.1,14.1-15.7,7.3-8.3,14.6-16.6,22-24.9l43.9-49.9c3.8-4.3-12.8-15-17.5-9.6-13,14.8-26,29.6-39.1,44.3-6.5,7.4-13,14.8-19.5,22.2-4.5,5.1-15,21.7-21.7,23.1,3.6,1.2,7.3,2.4,10.9,3.5,2.6,2.1-2.2-12.9-2.3-13.3-1.8-7-3.6-13.9-5.5-20.9-1.5-5.7-19.6-12.7-17.4-4.1h0Z"/>
            </g>
          </g>
          <g>
            <g>
              <rect class="cls-17" x="1612.5" y="827.4" width="402.5" height="31.1" transform="translate(20.3 -42.4) rotate(1.3)"/>
              <rect class="cls-21" x="1611" y="892.6" width="180" height="31.1" transform="translate(21.8 -39.8) rotate(1.3)"/>
            </g>
            <g>
              <rect class="cls-2" x="1389.8" y="820.3" width="95.3" height="95.3" transform="translate(20.8 -33.6) rotate(1.3)"/>
              <path class="cls-18" d="M1407.7,848.2c2.9,11.3,8.4,58.4,32,45.2,5.4-3,10.1-11.1,14.1-15.7,7.3-8.3,14.6-16.6,22-24.9,14.6-16.6,29.3-33.3,43.9-49.9,3.8-4.3-12.8-15-17.5-9.6l-39.1,44.3c-6.5,7.4-13,14.8-19.5,22.2-4.5,5.1-15,21.7-21.7,23.1,3.6,1.2,7.3,2.4,10.9,3.5,2.6,2.1-2.2-12.9-2.3-13.3-1.8-7-3.6-13.9-5.5-20.9-1.5-5.7-19.6-12.7-17.4-4.1h0Z"/>
            </g>
          </g>
          <g>
            <g>
              <rect class="cls-17" x="1608.5" y="1000.5" width="402.5" height="31.1" transform="translate(24.4 -42.3) rotate(1.3)"/>
              <rect class="cls-21" x="1606.9" y="1067.4" width="318" height="31.1" transform="translate(26 -41.2) rotate(1.3)"/>
            </g>
            <g>
              <rect class="cls-2" x="1385.7" y="993.5" width="95.3" height="95.3" transform="translate(24.9 -33.4) rotate(1.3)"/>
              <path class="cls-18" d="M1403.6,1020.3c2.9,11.3,8.4,58.4,32,45.2,5.4-3,10.1-11.1,14.1-15.7l22-24.9c14.6-16.6,29.3-33.3,43.9-49.9,3.8-4.3-12.8-15-17.5-9.6l-39.1,44.3c-6.5,7.4-13,14.8-19.5,22.2-4.5,5.1-15,21.7-21.7,23.1,3.6,1.2,7.3,2.4,10.9,3.5,2.6,2.1-2.2-12.9-2.3-13.3-1.8-7-3.6-13.9-5.5-20.9-1.5-5.7-19.6-12.7-17.4-4.1h0Z"/>
            </g>
          </g>
          <g>
            <g>
              <rect class="cls-17" x="1604.5" y="1169.6" width="159.6" height="31.1" transform="translate(28.3 -39.3) rotate(1.3)"/>
              <path class="cls-21" d="M2005.6,1245l-402.4-9.5-.7,31.1c155.7,3.7,353.9,10.9,394.4,4.7,6.1-7,9.5-15.6,8.8-26.4Z"/>
            </g>
            <g>
              <rect class="cls-2" x="1383" y="1165.4" width="95.3" height="95.3" transform="translate(28.9 -33.3) rotate(1.3)"/>
              <path class="cls-18" d="M1399.6,1190.8c2.9,11.3,8.4,58.4,32,45.2,5.4-3,10.1-11.1,14.1-15.7l22-24.9c14.6-16.6,29.3-33.3,43.9-49.9,3.8-4.3-12.8-15-17.5-9.6-13,14.8-26,29.6-39.1,44.3-6.5,7.4-13,14.8-19.5,22.2-4.5,5.1-15,21.7-21.7,23.1,3.6,1.2,7.3,2.4,10.9,3.5,2.6,2.1-2.2-12.9-2.3-13.3-1.8-7-3.6-13.9-5.5-20.9-1.5-5.7-19.6-12.7-17.4-4.1h0Z"/>
            </g>
          </g>
        </g>
      </g>
    </g>
    <g>
      <path class="cls-18" d="M1909.6,146.9v95.1h-382v-95.1c0-15.2,6.2-28.9,16.1-38.8,1.2-1.2,2.5-2.4,3.9-3.5,9.5-7.9,21.7-12.6,35-12.6s19.5-2.3,28.1-6.4c3.7-1.8,7.2-3.9,10.6-6.4,10.9-8.1,19.3-19.6,23.4-33.2,4.2-14,12.9-25.6,24.2-33.8,10.8-7.8,24-12.2,37.9-12.2h23.8c14,0,27.1,4.5,37.9,12.2,11.2,8.1,19.9,19.8,24.2,33.8,4.2,13.7,12.5,25.2,23.4,33.2,3.3,2.4,6.8,4.6,10.6,6.4,8.6,4.1,18.1,6.4,28.1,6.4s25.5,4.7,35,12.6c12.2,10,20,25.3,20,42.3Z"/>
      <polygon class="cls-16" points="1940.6 195.3 1940.6 266 1496.6 266 1496.6 195.3 1527.6 195.3 1527.6 242 1909.6 242 1909.6 195.3 1940.6 195.3"/>
      <ellipse class="cls-1" cx="1718.6" cy="57" rx="33.9" ry="32.2"/>
    </g>
  </g>
  <g>
    <g>
      <path class="cls-22" d="M986.5,502.1c-13.5-2.6-26.2-25.2-30.6-33.9-1.1-2.1-1.4-4.5-1-6.9l5.4-28.6s12.4,2.1,11.5,18.7c0,1.7,.3,3.4,.9,5l4.8,12.5,14.1-10.9-7.7-21.8s-10.3,2.8-15.7,1.1c-11-3.5,3.4-12,7.9-12.9s14.5-4.5,19.1,3.2c4.5,7.7,7.3,12.3,7.3,12.3,0,0,5-17.3,1.6-55.9-.2-1.7,4.2-1.7,5.4-.5,3.7,3.7,9.5,15.1,9.8,49.5,0,0,.6-40.2,7.5-44.3,5.7-3.4,8.5,16.2,4.5,49.6,0,0,7.4-28.9,12.7-28.9,9,0,.1,77.1-22.4,100.1l-35.1-7.4Z"/>
      <path class="cls-22" d="M1029,490.3c-.4,3.8-.8,7.6-1.3,11.2h0c-1.6,12.8-3.6,24.3-5.9,34.1-.1,.5-.2,.9-.3,1.4-6.8,28-8.1,41.8-31.4,38.1l-24-27.4-.2-.3-1.8-2,4.9-14.4,.6-1.9,3.6-10.5,.4-1.4,6.2-18,2.5-7.3,46.8-1.6Z"/>
    </g>
    <g>
      <path class="cls-9" d="M582.4,1486.6l-6.1,19.1c-42,13.8-66.4,29.6-68,48h121.3l9.7-64c-24.6,6-44.3,1.8-56.9-3.1Z"/>
      <path class="cls-22" d="M597.6,1439l-15.2,47.5c12.7,4.9,32.4,9.1,56.9,3.1l6.3-41.3-48-9.3Z"/>
      <path class="cls-22" d="M805,1484.5l3.6-48.4-57,3-3.1,44.6c24.1,7.7,44.1,4.7,56.6,.8Z"/>
      <path class="cls-9" d="M873.6,1553.7c-1.6-18.4-23-43.7-70-49.7l1.4-19.6c-12.5,3.9-32.4,6.9-56.6-.8l-4.9,70h130Z"/>
    </g>
    <polygon class="cls-22" points="758.8 514.6 690.1 515 690.1 411 756.7 411 756.8 417.4 757.1 450.4 757.6 503.3 758.8 514.6"/>
    <path class="cls-6" d="M757.1,455.4c-12.4,13-44.6-1.7-58.2-16l57.9-17,.3,33Z"/>
    <path class="cls-22" d="M773.1,387c0,7.7-.5,15.7-1.8,23.4-3.4,21-12.2,39.1-32.7,39.6-48.4,1.4-62.2-26.3-71.3-48.9-9.1-22.7,5.7-77.2,5.7-77.2l62.6-6.2,34.4,28.2s3.3,19.2,3.1,41.1Z"/>
    <path class="cls-11" d="M669.2,388.2s13.8-.6,16.2-36.3c24.7,8.3,42.7,.7,57-15.7,12.2,16.1,46.3,21.2,57.9-11.8,8.3-23.8-14.7-59.3-48.2-37.8-32.8-16.6-82.6-15.4-97,25.2,0,0-49.8,23,2.9,73.5,1.1,1,11.1,2.9,11.1,2.9Z"/>
    <polygon class="cls-11" points="859.6 888.3 821.6 1463 732.2 1463 754.6 905.4 768.2 899 859.6 888.3"/>
    <polygon class="cls-9" points="626.9 809.7 564.2 1463 661.6 1463 754.2 920.4 859.6 888.4 864.2 772.4 629.6 767 626.9 809.7"/>
    <path class="cls-4" d="M640.9,811.1c53.2,19.1,177.9-2.7,203.8-29.3l-18.4-36.8-205.2,27.3,19.8,38.9Z"/>
    <path class="cls-1" d="M839.9,773c-1.7,.7-3.5,1.5-5.3,2.2-19.9,8.1-42.5,15.2-66.6,19.8-14.4,2.8-29.4,4.8-44.7,5.5-23,1.2-46.7-.4-70.2-5.7l29.8-277.8,3.6-33.9s39,48,82-5l71.3,294.9Z"/>
    <path class="cls-8" d="M723.3,800.4c-23,1.2-46.7-.4-70.2-5.7l29.8-277.8,10.6-15.4c26.3,63.9,53.2,205.5,29.7,298.9Z"/>
    <path class="cls-17" d="M690.1,472c29.6,125.8,41.8,255.3-1.8,399-32.4,12.3-67.6,12.2-105.3,1.3l9.3-261.3-219.7,151-13.3-82.3c84.4-80.7,230.4-202.7,330.8-207.7Z"/>
    <path class="cls-8" d="M834.6,775.1c-19.9,8.1-42.5,15.2-66.6,19.8-13.2-75.9-16.2-200.6-5.4-256.9l72,237.1Z"/>
    <path class="cls-3" d="M1021.7,535.6c-.1,.5-.2,.9-.3,1.4-6.8,28-8.1,41.8-31.4,38.1l-24-27.4-.2-.3,3.1-16.4,.6-1.9,3.6-10.5,.4-1.4,48.2,18.3Z"/>
    <path class="cls-17" d="M1017.6,561s-59,125-94,128c-33.9,2.9-50-30-50-30l24,182.7c-28.2,13.2-59,19.6-94.7,13.3-31.7-103-43.7-236.2-46.1-384.5,25.7,1.6,76.5,3.8,94.8,15.5,32.7,21,73,96,73,96l47-64,46,43Z"/>
    <g>
      <path class="cls-7" d="M298.3,384.9s3.6-59.8,9.7-57c6.1,2.8,18.3,54.8,18.3,54.8l-13.1,21.1-14.9-18.9Z"/>
      <path class="cls-18" d="M477.9,1464.7l1.8,19.7c3.1,34.7-22.5,65.4-57.3,68.6l-5.1,.5c-34.7,3.1-65.4-22.5-68.6-57.3l-1.8-19.7,130.9-11.8Z"/>
      <rect class="cls-20" x="303.9" y="515.7" width="131.4" height="956.8" transform="translate(-87.5 37.1) rotate(-5.1)"/>
      <rect class="cls-10" x="339.3" y="496.8" width="46.7" height="838.7" transform="translate(-80.5 36.1) rotate(-5.1)"/>
      <polygon class="cls-11" points="477.9 1464.7 347 1476.5 343.6 1438.1 341.2 1411.4 333.8 1329.4 464.7 1317.6 472 1399.6 474.4 1426.3 477.9 1464.7"/>
      <rect class="cls-20" x="342.1" y="1405.5" width="131.4" height="26.8" transform="translate(-125.4 42.2) rotate(-5.1)"/>
      <path class="cls-18" d="M261.4,523.5l36.4-145.7s12.5,5.6,27.8-3.8l66.8,137.8-130.9,11.8Z"/>
    </g>
    <path class="cls-22" d="M676.4,382.2c-.6-2.1-10.4-5.1-12.5-5.7-3.3-.9-7-1.4-10.2,0-11.8,5.3-10.2,22.2-4.1,31.1,3.5,5,8.5,8.9,14.4,10.6,2.1,.6,22.5,.9,21.6-2.4,0,0-9.2-33.7-9.2-33.7Z"/>
    <path class="cls-22" d="M304.6,722c-3.1-9.6-13.2-15-22.7-11.7-14.9,5.1-27.9,13.9-29.9,28.7-1.8,13.5,4.9,56.7,35.1,62.2l-2.5-22.2s18.5-4.3,22.2-12.3c2.6-5.6,2.8-29-2.2-44.7Z"/>
    <path class="cls-9" d="M864.4,573.6c1.6,9.4,2.9,18.9,4.2,28.4,1.3,9.5,2.4,19,3.6,28.5l3.1,28.5c.9,9.5,1.8,19.1,2.4,28.6l-1.6,.2c-1.6-9.4-3-18.9-4.3-28.4l-3.6-28.5c-1-9.5-2.2-19-3-28.5-.9-9.5-1.8-19-2.4-28.6l1.6-.2Z"/>
    <path class="cls-9" d="M595.4,572.1c0,10.6-.3,21.2-.6,31.8-.3,10.6-.8,21.2-1.2,31.8l-1.7,31.7c-.7,10.6-1.4,21.1-2.5,31.7h-1.6c0-10.7,.2-21.3,.5-31.9l1.3-31.8c.6-10.6,1.1-21.2,1.8-31.7,.7-10.6,1.4-21.1,2.4-31.7h1.6Z"/>
    <path class="cls-11" d="M725,381.2c.8,3.8-.7,7.3-3.5,8s-5.7-1.9-6.5-5.7c-.8-3.8,.7-7.3,3.5-8s5.7,1.9,6.5,5.7Z"/>
    <path class="cls-11" d="M764.8,376.5c-.2,3.9-2.6,6.9-5.4,6.8-2.8-.1-5-3.3-4.8-7.2,.2-3.9,2.6-6.9,5.4-6.8,2.8,.1,5,3.3,4.8,7.2Z"/>
    <path class="cls-6" d="M742.6,379.7c1.4,3.3,1.2,6.9,2,9.6,.5,1.4,1.1,2.6,1.9,3.3,.8,.7,2.1,1.2,3.8,1.8,1.7,.7,3.5,1.8,4.7,3.6,1.3,1.7,1.7,4.6,.5,6.5-1.1,1.9-2.6,3-3.9,4-1.4,.9-2.7,1.9-4.1,2.8l-1-1.2c1-1.3,2.2-2.5,3.3-3.7,1.1-1.2,2.2-2.3,2.6-3.4,.8-1.9-1-3.9-3.6-4.9-1.4-.6-3.3-1.2-4.9-2.8-1.5-1.5-2.3-3.5-2.6-5.3-.7-3.7,0-6.9-.3-10l1.5-.4Z"/>
    <path class="cls-11" d="M705.9,371c.6-2.4,2-4.6,4.1-6.2,2-1.7,4.6-2.6,7.3-2.7,5.3-.3,10.5,2.7,12.6,7.1l-1.2,1c-3.5-2.7-7.3-4.2-11.2-4.1-3.9,.1-7.5,2.1-10.1,5.6l-1.4-.7Z"/>
    <path class="cls-11" d="M747.2,366.1c.6-1.9,1.6-3.6,3.1-5.1,1.5-1.5,3.5-2.5,5.7-2.8,4.3-.7,8.9,1.5,10.6,5.3l-1.3,.9c-2.8-1.9-5.9-2.7-8.8-2.3-1.4,.2-2.8,.7-4.2,1.5-1.3,.8-2.6,2-3.9,3.2l-1.3-.8Z"/>
    <path class="cls-1" d="M725,418.4c7,10.9,16.3,12.1,23.5,.6l-23.5-.6Z"/>
    <path class="cls-14" d="M773.2,384.4c0,7.7-.7,18.4-2,26.1-4.8-1.6-8.4-6.1-8.4-11.5s4.6-13.7,10.3-14.6Z"/>
    <circle class="cls-14" cx="708" cy="406.1" r="12.9"/>
    <path class="cls-6" d="M668,395c-2.5-1.7-4.9-3.6-7.2-4.7-1.2-.6-2.2-.9-3.2-.8-1,0-2.1,.6-3.3,1.5l-1.3-.8c.5-1.6,1.7-3.4,3.8-4.1,2.1-.7,4.2-.1,5.8,.7,3.2,1.7,5.4,4.3,6.7,7.4l-1.2,.9Z"/>
    <path class="cls-5" d="M306.8,766.7l-18.6,56.4-3.8-44.1c11.5-2.5,17.8-7.1,22.4-12.3Z"/>
  </g>
  <line class="cls-13" y1="1554.1" x2="2585.9" y2="1554.1"/>
</svg>